<svg width="108" height="28" viewBox="0 0 108 28" fill="none" xmlns="http://www.w3.org/2000/svg">
<path d="M2.33337 25.6665H25.6667" stroke="#793EF5" stroke-width="1.5" stroke-miterlimit="10" stroke-linecap="round" stroke-linejoin="round"/>
<path d="M11.375 4.66683V25.6668H16.625V4.66683C16.625 3.3835 16.1 2.3335 14.525 2.3335H13.475C11.9 2.3335 11.375 3.3835 11.375 4.66683Z" stroke="#793EF5" stroke-width="1.5" stroke-linecap="round" stroke-linejoin="round"/>
<path d="M8.16667 11.6668C8.16667 10.3835 7.7 9.3335 6.3 9.3335H5.36667C3.96667 9.3335 3.5 10.3835 3.5 11.6668V25.6668H8.16667V16.3218" stroke="#793EF5" stroke-width="1.5" stroke-linecap="round" stroke-linejoin="round"/>
<path d="M19.8334 17.4998V25.6665H24.5V17.4998C24.5 16.2165 24.0334 15.1665 22.6334 15.1665H21.7C20.3 15.1665 19.8334 16.2165 19.8334 17.4998Z" stroke="#793EF5" stroke-width="1.5" stroke-linecap="round" stroke-linejoin="round"/>
<path d="M54.7933 4.62016C55.3533 5.4485 55.6799 6.44016 55.6799 7.5135C55.6683 10.3135 53.4633 12.5885 50.6866 12.6818C50.5699 12.6702 50.4299 12.6702 50.3016 12.6818C47.5249 12.5885 45.3199 10.3135 45.3199 7.5135C45.3199 4.65516 47.6299 2.3335 50.4999 2.3335" stroke="#793EF5" stroke-width="1.5" stroke-linecap="round" stroke-linejoin="round"/>
<path d="M59.145 4.6665C61.4083 4.6665 63.2283 6.49817 63.2283 8.74984C63.2283 10.9548 61.4783 12.7515 59.2966 12.8332C59.2033 12.8215 59.0983 12.8215 58.9933 12.8332" stroke="#793EF5" stroke-width="1.5" stroke-linecap="round" stroke-linejoin="round"/>
<path d="M44.8533 16.9865C42.03 18.8765 42.03 21.9565 44.8533 23.8348C48.0617 25.9815 53.3233 25.9815 56.5317 23.8348C59.355 21.9448 59.355 18.8648 56.5317 16.9865C53.335 14.8515 48.0733 14.8515 44.8533 16.9865Z" stroke="#793EF5" stroke-width="1.5" stroke-linecap="round" stroke-linejoin="round"/>
<path d="M61.3967 23.3335C62.2367 23.1585 63.0301 22.8202 63.6834 22.3185C65.5034 20.9535 65.5034 18.7018 63.6834 17.3368C63.0417 16.8468 62.2601 16.5202 61.4317 16.3335" stroke="#793EF5" stroke-width="1.5" stroke-linecap="round" stroke-linejoin="round"/>
<path d="M91.48 8.3535C91.48 9.74183 92.6116 10.8735 94 10.8735C95.3883 10.8735 96.52 9.74183 96.52 8.3535C96.52 6.96516 95.3883 5.8335 94 5.8335" stroke="#793EF5" stroke-width="1.5" stroke-linecap="round" stroke-linejoin="round"/>
<path d="M87.9216 22.1665C89.3099 22.1665 90.4416 21.0348 90.4416 19.6465C90.4416 18.2581 89.3099 17.1265 87.9216 17.1265C86.5333 17.1265 85.4016 18.2581 85.4016 19.6465C85.4016 21.0348 86.5216 22.1665 87.9216 22.1665Z" stroke="#793EF5" stroke-width="1.5" stroke-linecap="round" stroke-linejoin="round"/>
<path d="M100.078 22.1665C101.467 22.1665 102.598 21.0348 102.598 19.6465C102.598 18.2581 101.467 17.1265 100.078 17.1265C98.69 17.1265 97.5583 18.2581 97.5583 19.6465C97.5583 21.0348 98.69 22.1665 100.078 22.1665Z" stroke="#793EF5" stroke-width="1.5" stroke-linecap="round" stroke-linejoin="round"/>
</svg>
