<svg width="789" height="174" viewBox="0 0 789 174" fill="none" xmlns="http://www.w3.org/2000/svg">
<path d="M18.9213 166V158.776H16.3413V157.6H22.7973V158.776H20.2173V166H18.9213ZM25.6199 166.168C25.0279 166.168 24.4999 166.048 24.0359 165.808C23.5799 165.56 23.2199 165.208 22.9559 164.752C22.6919 164.296 22.5599 163.756 22.5599 163.132V162.952C22.5599 162.328 22.6919 161.792 22.9559 161.344C23.2199 160.888 23.5799 160.536 24.0359 160.288C24.4999 160.04 25.0279 159.916 25.6199 159.916C26.2119 159.916 26.7399 160.04 27.2039 160.288C27.6679 160.536 28.0319 160.888 28.2959 161.344C28.5599 161.792 28.6919 162.328 28.6919 162.952V163.132C28.6919 163.756 28.5599 164.296 28.2959 164.752C28.0319 165.208 27.6679 165.56 27.2039 165.808C26.7399 166.048 26.2119 166.168 25.6199 166.168ZM25.6199 165.064C26.1639 165.064 26.6039 164.892 26.9399 164.548C27.2839 164.196 27.4559 163.712 27.4559 163.096V162.988C27.4559 162.372 27.2879 161.892 26.9519 161.548C26.6159 161.196 26.1719 161.02 25.6199 161.02C25.0839 161.02 24.6439 161.196 24.2999 161.548C23.9639 161.892 23.7959 162.372 23.7959 162.988V163.096C23.7959 163.712 23.9639 164.196 24.2999 164.548C24.6439 164.892 25.0839 165.064 25.6199 165.064ZM32.2397 166C31.8797 166 31.5917 165.892 31.3757 165.676C31.1677 165.46 31.0637 165.172 31.0637 164.812V161.128H29.4317V160.084H31.0637V158.128H32.2997V160.084H34.0637V161.128H32.2997V164.596C32.2997 164.836 32.4117 164.956 32.6357 164.956H33.8717V166H32.2397ZM37.3401 166.168C36.9161 166.168 36.5361 166.096 36.2001 165.952C35.8721 165.808 35.6081 165.596 35.4081 165.316C35.2161 165.036 35.1201 164.696 35.1201 164.296C35.1201 163.888 35.2161 163.552 35.4081 163.288C35.6081 163.016 35.8761 162.812 36.2121 162.676C36.5561 162.54 36.9441 162.472 37.3761 162.472H39.1761V162.088C39.1761 161.744 39.0721 161.468 38.8641 161.26C38.6561 161.052 38.3361 160.948 37.9041 160.948C37.4801 160.948 37.1561 161.048 36.9321 161.248C36.7081 161.448 36.5601 161.708 36.4881 162.028L35.3361 161.656C35.4321 161.336 35.5841 161.048 35.7921 160.792C36.0081 160.528 36.2921 160.316 36.6441 160.156C36.9961 159.996 37.4201 159.916 37.9161 159.916C38.6841 159.916 39.2881 160.112 39.7281 160.504C40.1681 160.896 40.3881 161.452 40.3881 162.172V164.608C40.3881 164.848 40.5001 164.968 40.7241 164.968H41.2281V166H40.3041C40.0241 166 39.7961 165.928 39.6201 165.784C39.4441 165.64 39.3561 165.444 39.3561 165.196V165.16H39.1761C39.1121 165.28 39.0161 165.42 38.8881 165.58C38.7601 165.74 38.5721 165.88 38.3241 166C38.0761 166.112 37.7481 166.168 37.3401 166.168ZM37.5201 165.148C38.0161 165.148 38.4161 165.008 38.7201 164.728C39.0241 164.44 39.1761 164.048 39.1761 163.552V163.432H37.4481C37.1201 163.432 36.8561 163.504 36.6561 163.648C36.4561 163.784 36.3561 163.988 36.3561 164.26C36.3561 164.532 36.4601 164.748 36.6681 164.908C36.8761 165.068 37.1601 165.148 37.5201 165.148ZM42.4299 166V157.6H43.6659V166H42.4299ZM48.5228 166V157.6H53.8148V158.776H49.8188V161.188H53.4788V162.364H49.8188V164.824H53.8748V166H48.5228ZM55.2619 166V160.084H56.4739V160.972H56.6659C56.7779 160.732 56.9779 160.508 57.2659 160.3C57.5539 160.092 57.9819 159.988 58.5499 159.988C58.9979 159.988 59.3939 160.088 59.7379 160.288C60.0899 160.488 60.3659 160.772 60.5659 161.14C60.7659 161.5 60.8659 161.936 60.8659 162.448V166H59.6299V162.544C59.6299 162.032 59.5019 161.656 59.2459 161.416C58.9899 161.168 58.6379 161.044 58.1899 161.044C57.6779 161.044 57.2659 161.212 56.9539 161.548C56.6499 161.884 56.4979 162.372 56.4979 163.012V166H55.2619ZM62.6447 166V160.084H63.8567V160.78H64.0487C64.1447 160.532 64.2967 160.352 64.5047 160.24C64.7207 160.12 64.9847 160.06 65.2967 160.06H66.0047V161.176H65.2487C64.8487 161.176 64.5207 161.288 64.2647 161.512C64.0087 161.728 63.8807 162.064 63.8807 162.52V166H62.6447ZM69.8464 166.168C69.2544 166.168 68.7264 166.048 68.2624 165.808C67.8064 165.56 67.4464 165.208 67.1824 164.752C66.9184 164.296 66.7864 163.756 66.7864 163.132V162.952C66.7864 162.328 66.9184 161.792 67.1824 161.344C67.4464 160.888 67.8064 160.536 68.2624 160.288C68.7264 160.04 69.2544 159.916 69.8464 159.916C70.4384 159.916 70.9664 160.04 71.4304 160.288C71.8944 160.536 72.2584 160.888 72.5224 161.344C72.7864 161.792 72.9184 162.328 72.9184 162.952V163.132C72.9184 163.756 72.7864 164.296 72.5224 164.752C72.2584 165.208 71.8944 165.56 71.4304 165.808C70.9664 166.048 70.4384 166.168 69.8464 166.168ZM69.8464 165.064C70.3904 165.064 70.8304 164.892 71.1664 164.548C71.5104 164.196 71.6824 163.712 71.6824 163.096V162.988C71.6824 162.372 71.5144 161.892 71.1784 161.548C70.8424 161.196 70.3984 161.02 69.8464 161.02C69.3104 161.02 68.8704 161.196 68.5264 161.548C68.1904 161.892 68.0224 162.372 68.0224 162.988V163.096C68.0224 163.712 68.1904 164.196 68.5264 164.548C68.8704 164.892 69.3104 165.064 69.8464 165.064ZM74.4572 166V157.6H75.6932V166H74.4572ZM77.5275 166V157.6H78.7635V166H77.5275ZM80.5979 166V160.084H81.8099V160.78H82.0019C82.1139 160.572 82.2939 160.388 82.5419 160.228C82.7899 160.068 83.1259 159.988 83.5499 159.988C83.9899 159.988 84.3419 160.08 84.6059 160.264C84.8779 160.44 85.0819 160.668 85.2179 160.948H85.4099C85.5459 160.676 85.7419 160.448 85.9979 160.264C86.2619 160.08 86.6339 159.988 87.1139 159.988C87.4979 159.988 87.8379 160.068 88.1339 160.228C88.4299 160.38 88.6659 160.612 88.8419 160.924C89.0179 161.228 89.1059 161.608 89.1059 162.064V166H87.8699V162.16C87.8699 161.8 87.7699 161.524 87.5699 161.332C87.3779 161.132 87.1019 161.032 86.7419 161.032C86.3579 161.032 86.0499 161.156 85.8179 161.404C85.5859 161.652 85.4699 162.008 85.4699 162.472V166H84.2339V162.16C84.2339 161.8 84.1339 161.524 83.9339 161.332C83.7419 161.132 83.4659 161.032 83.1059 161.032C82.7219 161.032 82.4139 161.156 82.1819 161.404C81.9499 161.652 81.8339 162.008 81.8339 162.472V166H80.5979ZM93.5989 166.168C92.9989 166.168 92.4749 166.044 92.0269 165.796C91.5789 165.54 91.2269 165.184 90.9709 164.728C90.7229 164.264 90.5989 163.728 90.5989 163.12V162.976C90.5989 162.36 90.7229 161.824 90.9709 161.368C91.2189 160.904 91.5629 160.548 92.0029 160.3C92.4509 160.044 92.9669 159.916 93.5509 159.916C94.1189 159.916 94.6149 160.044 95.0389 160.3C95.4709 160.548 95.8069 160.896 96.0469 161.344C96.2869 161.792 96.4069 162.316 96.4069 162.916V163.384H91.8589C91.8749 163.904 92.0469 164.32 92.3749 164.632C92.7109 164.936 93.1269 165.088 93.6229 165.088C94.0869 165.088 94.4349 164.984 94.6669 164.776C94.9069 164.568 95.0909 164.328 95.2189 164.056L96.2389 164.584C96.1269 164.808 95.9629 165.044 95.7469 165.292C95.5389 165.54 95.2629 165.748 94.9189 165.916C94.5749 166.084 94.1349 166.168 93.5989 166.168ZM91.8709 162.436H95.1469C95.1149 161.988 94.9549 161.64 94.6669 161.392C94.3789 161.136 94.0029 161.008 93.5389 161.008C93.0749 161.008 92.6949 161.136 92.3989 161.392C92.1109 161.64 91.9349 161.988 91.8709 162.436ZM97.8947 166V160.084H99.1067V160.972H99.2987C99.4107 160.732 99.6107 160.508 99.8987 160.3C100.187 160.092 100.615 159.988 101.183 159.988C101.631 159.988 102.027 160.088 102.371 160.288C102.723 160.488 102.999 160.772 103.199 161.14C103.399 161.5 103.499 161.936 103.499 162.448V166H102.263V162.544C102.263 162.032 102.135 161.656 101.879 161.416C101.623 161.168 101.271 161.044 100.823 161.044C100.311 161.044 99.8987 161.212 99.5867 161.548C99.2827 161.884 99.1307 162.372 99.1307 163.012V166H97.8947ZM107.333 166C106.973 166 106.685 165.892 106.469 165.676C106.261 165.46 106.157 165.172 106.157 164.812V161.128H104.525V160.084H106.157V158.128H107.393V160.084H109.157V161.128H107.393V164.596C107.393 164.836 107.505 164.956 107.729 164.956H108.965V166H107.333ZM113.034 166.168C112.282 166.168 111.658 166 111.162 165.664C110.666 165.328 110.362 164.82 110.25 164.14L111.402 163.864C111.466 164.192 111.574 164.452 111.726 164.644C111.878 164.836 112.066 164.972 112.29 165.052C112.522 165.132 112.77 165.172 113.034 165.172C113.426 165.172 113.726 165.096 113.934 164.944C114.15 164.792 114.258 164.596 114.258 164.356C114.258 164.116 114.158 163.94 113.958 163.828C113.758 163.716 113.462 163.624 113.07 163.552L112.662 163.48C112.262 163.408 111.898 163.304 111.57 163.168C111.242 163.032 110.982 162.844 110.79 162.604C110.598 162.364 110.502 162.056 110.502 161.68C110.502 161.12 110.71 160.688 111.126 160.384C111.542 160.072 112.094 159.916 112.782 159.916C113.446 159.916 113.99 160.068 114.414 160.372C114.846 160.668 115.126 161.072 115.254 161.584L114.102 161.908C114.03 161.548 113.878 161.296 113.646 161.152C113.414 161 113.126 160.924 112.782 160.924C112.446 160.924 112.182 160.988 111.99 161.116C111.798 161.236 111.702 161.408 111.702 161.632C111.702 161.872 111.794 162.048 111.978 162.16C112.17 162.272 112.426 162.356 112.746 162.412L113.166 162.484C113.59 162.556 113.978 162.656 114.33 162.784C114.682 162.912 114.958 163.096 115.158 163.336C115.366 163.576 115.47 163.896 115.47 164.296C115.47 164.888 115.25 165.348 114.81 165.676C114.37 166.004 113.778 166.168 113.034 166.168Z" fill="#5C5C5C"/>
<path d="M30.6797 145V131.854H30.3437L27.9287 136.81H25.5977L28.8527 130.3H32.8847V145H30.6797ZM41.1707 145.294C39.4627 145.294 38.0977 144.811 37.0757 143.845C36.0677 142.865 35.5637 141.395 35.5637 139.435V135.865C35.5637 133.947 36.0677 132.491 37.0757 131.497C38.0977 130.503 39.4627 130.006 41.1707 130.006C42.8927 130.006 44.2577 130.503 45.2657 131.497C46.2877 132.491 46.7987 133.947 46.7987 135.865V139.435C46.7987 141.395 46.2877 142.865 45.2657 143.845C44.2577 144.811 42.8927 145.294 41.1707 145.294ZM41.1707 143.32C42.3327 143.32 43.1937 142.991 43.7537 142.333C44.3137 141.661 44.5937 140.723 44.5937 139.519V135.739C44.5937 134.535 44.2927 133.611 43.6907 132.967C43.0887 132.309 42.2487 131.98 41.1707 131.98C40.0787 131.98 39.2387 132.316 38.6507 132.988C38.0627 133.646 37.7687 134.563 37.7687 135.739V139.519C37.7687 140.751 38.0487 141.696 38.6087 142.354C39.1827 142.998 40.0367 143.32 41.1707 143.32ZM54.7058 145.294C52.9978 145.294 51.6328 144.811 50.6108 143.845C49.6028 142.865 49.0988 141.395 49.0988 139.435V135.865C49.0988 133.947 49.6028 132.491 50.6108 131.497C51.6328 130.503 52.9978 130.006 54.7058 130.006C56.4278 130.006 57.7928 130.503 58.8008 131.497C59.8228 132.491 60.3338 133.947 60.3338 135.865V139.435C60.3338 141.395 59.8228 142.865 58.8008 143.845C57.7928 144.811 56.4278 145.294 54.7058 145.294ZM54.7058 143.32C55.8678 143.32 56.7288 142.991 57.2888 142.333C57.8488 141.661 58.1288 140.723 58.1288 139.519V135.739C58.1288 134.535 57.8278 133.611 57.2258 132.967C56.6238 132.309 55.7838 131.98 54.7058 131.98C53.6138 131.98 52.7738 132.316 52.1858 132.988C51.5978 133.646 51.3038 134.563 51.3038 135.739V139.519C51.3038 140.751 51.5838 141.696 52.1438 142.354C52.7178 142.998 53.5718 143.32 54.7058 143.32ZM62.8089 147.856V146.617H63.5229C64.0969 146.617 64.3839 146.33 64.3839 145.756V145.084H64.0689C63.5789 145.084 63.1729 144.937 62.8509 144.643C62.5289 144.349 62.3679 143.978 62.3679 143.53C62.3679 143.04 62.5289 142.648 62.8509 142.354C63.1729 142.046 63.5789 141.892 64.0689 141.892C64.5589 141.892 64.9579 142.053 65.2659 142.375C65.5879 142.683 65.7489 143.089 65.7489 143.593V145.777C65.7489 147.163 65.0559 147.856 63.6699 147.856H62.8089ZM73.409 145.294C71.701 145.294 70.336 144.811 69.314 143.845C68.306 142.865 67.802 141.395 67.802 139.435V135.865C67.802 133.947 68.306 132.491 69.314 131.497C70.336 130.503 71.701 130.006 73.409 130.006C75.131 130.006 76.496 130.503 77.504 131.497C78.526 132.491 79.037 133.947 79.037 135.865V139.435C79.037 141.395 78.526 142.865 77.504 143.845C76.496 144.811 75.131 145.294 73.409 145.294ZM73.409 143.32C74.571 143.32 75.432 142.991 75.992 142.333C76.552 141.661 76.832 140.723 76.832 139.519V135.739C76.832 134.535 76.531 133.611 75.929 132.967C75.327 132.309 74.487 131.98 73.409 131.98C72.317 131.98 71.477 132.316 70.889 132.988C70.301 133.646 70.007 134.563 70.007 135.739V139.519C70.007 140.751 70.287 141.696 70.847 142.354C71.421 142.998 72.275 143.32 73.409 143.32ZM86.9441 145.294C85.2361 145.294 83.8711 144.811 82.8491 143.845C81.8411 142.865 81.3371 141.395 81.3371 139.435V135.865C81.3371 133.947 81.8411 132.491 82.8491 131.497C83.8711 130.503 85.2361 130.006 86.9441 130.006C88.6661 130.006 90.0311 130.503 91.0391 131.497C92.0611 132.491 92.5721 133.947 92.5721 135.865V139.435C92.5721 141.395 92.0611 142.865 91.0391 143.845C90.0311 144.811 88.6661 145.294 86.9441 145.294ZM86.9441 143.32C88.1061 143.32 88.9671 142.991 89.5271 142.333C90.0871 141.661 90.3671 140.723 90.3671 139.519V135.739C90.3671 134.535 90.0661 133.611 89.4641 132.967C88.8621 132.309 88.0221 131.98 86.9441 131.98C85.8521 131.98 85.0121 132.316 84.4241 132.988C83.8361 133.646 83.5421 134.563 83.5421 135.739V139.519C83.5421 140.751 83.8221 141.696 84.3821 142.354C84.9561 142.998 85.8101 143.32 86.9441 143.32ZM100.479 145.294C98.7713 145.294 97.4063 144.811 96.3843 143.845C95.3763 142.865 94.8723 141.395 94.8723 139.435V135.865C94.8723 133.947 95.3763 132.491 96.3843 131.497C97.4063 130.503 98.7713 130.006 100.479 130.006C102.201 130.006 103.566 130.503 104.574 131.497C105.596 132.491 106.107 133.947 106.107 135.865V139.435C106.107 141.395 105.596 142.865 104.574 143.845C103.566 144.811 102.201 145.294 100.479 145.294ZM100.479 143.32C101.641 143.32 102.502 142.991 103.062 142.333C103.622 141.661 103.902 140.723 103.902 139.519V135.739C103.902 134.535 103.601 133.611 102.999 132.967C102.397 132.309 101.557 131.98 100.479 131.98C99.3873 131.98 98.5473 132.316 97.9593 132.988C97.3713 133.646 97.0773 134.563 97.0773 135.739V139.519C97.0773 140.751 97.3573 141.696 97.9173 142.354C98.4913 142.998 99.3453 143.32 100.479 143.32Z" fill="#5C5C5C"/>
<path d="M168.926 166.168C167.902 166.168 167.09 165.88 166.49 165.304C165.89 164.72 165.59 163.88 165.59 162.784V160.816C165.59 159.72 165.89 158.884 166.49 158.308C167.09 157.724 167.902 157.432 168.926 157.432C169.934 157.432 170.71 157.712 171.254 158.272C171.806 158.832 172.082 159.596 172.082 160.564V160.636H170.798V160.528C170.798 159.96 170.642 159.496 170.33 159.136C170.026 158.776 169.558 158.596 168.926 158.596C168.286 158.596 167.786 158.792 167.426 159.184C167.066 159.568 166.886 160.104 166.886 160.792V162.808C166.886 163.488 167.066 164.024 167.426 164.416C167.786 164.808 168.286 165.004 168.926 165.004C169.558 165.004 170.026 164.824 170.33 164.464C170.642 164.096 170.798 163.632 170.798 163.072V162.868H172.082V163.036C172.082 164.004 171.806 164.768 171.254 165.328C170.71 165.888 169.934 166.168 168.926 166.168ZM176.325 166.168C175.733 166.168 175.205 166.048 174.741 165.808C174.285 165.56 173.925 165.208 173.661 164.752C173.397 164.296 173.265 163.756 173.265 163.132V162.952C173.265 162.328 173.397 161.792 173.661 161.344C173.925 160.888 174.285 160.536 174.741 160.288C175.205 160.04 175.733 159.916 176.325 159.916C176.917 159.916 177.445 160.04 177.909 160.288C178.373 160.536 178.737 160.888 179.001 161.344C179.265 161.792 179.397 162.328 179.397 162.952V163.132C179.397 163.756 179.265 164.296 179.001 164.752C178.737 165.208 178.373 165.56 177.909 165.808C177.445 166.048 176.917 166.168 176.325 166.168ZM176.325 165.064C176.869 165.064 177.309 164.892 177.645 164.548C177.989 164.196 178.161 163.712 178.161 163.096V162.988C178.161 162.372 177.993 161.892 177.657 161.548C177.321 161.196 176.877 161.02 176.325 161.02C175.789 161.02 175.349 161.196 175.005 161.548C174.669 161.892 174.501 162.372 174.501 162.988V163.096C174.501 163.712 174.669 164.196 175.005 164.548C175.349 164.892 175.789 165.064 176.325 165.064ZM180.936 166V160.084H182.148V160.78H182.34C182.452 160.572 182.632 160.388 182.88 160.228C183.128 160.068 183.464 159.988 183.888 159.988C184.328 159.988 184.68 160.08 184.944 160.264C185.216 160.44 185.42 160.668 185.556 160.948H185.748C185.884 160.676 186.08 160.448 186.336 160.264C186.6 160.08 186.972 159.988 187.452 159.988C187.836 159.988 188.176 160.068 188.472 160.228C188.768 160.38 189.004 160.612 189.18 160.924C189.356 161.228 189.444 161.608 189.444 162.064V166H188.208V162.16C188.208 161.8 188.108 161.524 187.908 161.332C187.716 161.132 187.44 161.032 187.08 161.032C186.696 161.032 186.388 161.156 186.156 161.404C185.924 161.652 185.808 162.008 185.808 162.472V166H184.572V162.16C184.572 161.8 184.472 161.524 184.272 161.332C184.08 161.132 183.804 161.032 183.444 161.032C183.06 161.032 182.752 161.156 182.52 161.404C182.288 161.652 182.172 162.008 182.172 162.472V166H180.936ZM191.225 168.4V160.084H192.437V160.936H192.629C192.781 160.672 193.009 160.436 193.313 160.228C193.625 160.02 194.069 159.916 194.645 159.916C195.141 159.916 195.593 160.036 196.001 160.276C196.417 160.516 196.749 160.864 196.997 161.32C197.253 161.768 197.381 162.312 197.381 162.952V163.132C197.381 163.772 197.257 164.32 197.009 164.776C196.761 165.224 196.429 165.568 196.013 165.808C195.597 166.048 195.141 166.168 194.645 166.168C194.261 166.168 193.937 166.12 193.673 166.024C193.409 165.928 193.197 165.808 193.037 165.664C192.877 165.512 192.749 165.356 192.653 165.196H192.461V168.4H191.225ZM194.285 165.088C194.829 165.088 195.273 164.916 195.617 164.572C195.961 164.228 196.133 163.736 196.133 163.096V162.988C196.133 162.356 195.957 161.868 195.605 161.524C195.261 161.18 194.821 161.008 194.285 161.008C193.757 161.008 193.317 161.18 192.965 161.524C192.621 161.868 192.449 162.356 192.449 162.988V163.096C192.449 163.736 192.621 164.228 192.965 164.572C193.317 164.916 193.757 165.088 194.285 165.088ZM198.913 166V157.6H200.149V166H198.913ZM204.695 166.168C204.095 166.168 203.571 166.044 203.123 165.796C202.675 165.54 202.323 165.184 202.067 164.728C201.819 164.264 201.695 163.728 201.695 163.12V162.976C201.695 162.36 201.819 161.824 202.067 161.368C202.315 160.904 202.659 160.548 203.099 160.3C203.547 160.044 204.063 159.916 204.647 159.916C205.215 159.916 205.711 160.044 206.135 160.3C206.567 160.548 206.903 160.896 207.143 161.344C207.383 161.792 207.503 162.316 207.503 162.916V163.384H202.955C202.971 163.904 203.143 164.32 203.471 164.632C203.807 164.936 204.223 165.088 204.719 165.088C205.183 165.088 205.531 164.984 205.763 164.776C206.003 164.568 206.187 164.328 206.315 164.056L207.335 164.584C207.223 164.808 207.059 165.044 206.843 165.292C206.635 165.54 206.359 165.748 206.015 165.916C205.671 166.084 205.231 166.168 204.695 166.168ZM202.967 162.436H206.243C206.211 161.988 206.051 161.64 205.763 161.392C205.475 161.136 205.099 161.008 204.635 161.008C204.171 161.008 203.791 161.136 203.495 161.392C203.207 161.64 203.031 161.988 202.967 162.436ZM211 166C210.64 166 210.352 165.892 210.136 165.676C209.928 165.46 209.824 165.172 209.824 164.812V161.128H208.192V160.084H209.824V158.128H211.06V160.084H212.824V161.128H211.06V164.596C211.06 164.836 211.172 164.956 211.396 164.956H212.632V166H211ZM214.276 166V160.084H215.512V166H214.276ZM214.9 159.28C214.66 159.28 214.456 159.204 214.288 159.052C214.128 158.892 214.048 158.688 214.048 158.44C214.048 158.192 214.128 157.992 214.288 157.84C214.456 157.68 214.66 157.6 214.9 157.6C215.148 157.6 215.352 157.68 215.512 157.84C215.672 157.992 215.752 158.192 215.752 158.44C215.752 158.688 215.672 158.892 215.512 159.052C215.352 159.204 215.148 159.28 214.9 159.28ZM220.118 166.168C219.526 166.168 218.998 166.048 218.534 165.808C218.078 165.56 217.718 165.208 217.454 164.752C217.19 164.296 217.058 163.756 217.058 163.132V162.952C217.058 162.328 217.19 161.792 217.454 161.344C217.718 160.888 218.078 160.536 218.534 160.288C218.998 160.04 219.526 159.916 220.118 159.916C220.71 159.916 221.238 160.04 221.702 160.288C222.166 160.536 222.53 160.888 222.794 161.344C223.058 161.792 223.19 162.328 223.19 162.952V163.132C223.19 163.756 223.058 164.296 222.794 164.752C222.53 165.208 222.166 165.56 221.702 165.808C221.238 166.048 220.71 166.168 220.118 166.168ZM220.118 165.064C220.662 165.064 221.102 164.892 221.438 164.548C221.782 164.196 221.954 163.712 221.954 163.096V162.988C221.954 162.372 221.786 161.892 221.45 161.548C221.114 161.196 220.67 161.02 220.118 161.02C219.582 161.02 219.142 161.196 218.798 161.548C218.462 161.892 218.294 162.372 218.294 162.988V163.096C218.294 163.712 218.462 164.196 218.798 164.548C219.142 164.892 219.582 165.064 220.118 165.064ZM224.729 166V160.084H225.941V160.972H226.133C226.245 160.732 226.445 160.508 226.733 160.3C227.021 160.092 227.449 159.988 228.017 159.988C228.465 159.988 228.861 160.088 229.205 160.288C229.557 160.488 229.833 160.772 230.033 161.14C230.233 161.5 230.333 161.936 230.333 162.448V166H229.097V162.544C229.097 162.032 228.969 161.656 228.713 161.416C228.457 161.168 228.105 161.044 227.657 161.044C227.145 161.044 226.733 161.212 226.421 161.548C226.117 161.884 225.965 162.372 225.965 163.012V166H224.729Z" fill="#5C5C5C"/>
<path d="M168.251 145.294C167.187 145.294 166.249 145.091 165.437 144.685C164.625 144.265 163.995 143.684 163.547 142.942C163.099 142.2 162.875 141.339 162.875 140.359V135.277C162.875 134.129 163.099 133.163 163.547 132.379C164.009 131.595 164.653 131.007 165.479 130.615C166.305 130.209 167.264 130.006 168.356 130.006C169.434 130.006 170.365 130.195 171.149 130.573C171.933 130.937 172.535 131.462 172.955 132.148C173.375 132.82 173.585 133.611 173.585 134.521H171.359C171.359 133.793 171.114 133.191 170.624 132.715C170.148 132.225 169.392 131.98 168.356 131.98C167.306 131.98 166.494 132.26 165.92 132.82C165.36 133.366 165.08 134.129 165.08 135.109V136.873H165.416C165.654 136.537 166.039 136.215 166.571 135.907C167.117 135.599 167.887 135.445 168.881 135.445C169.749 135.445 170.547 135.634 171.275 136.012C172.003 136.39 172.584 136.929 173.018 137.629C173.466 138.329 173.69 139.176 173.69 140.17V140.422C173.69 141.388 173.459 142.242 172.997 142.984C172.535 143.712 171.891 144.279 171.065 144.685C170.253 145.091 169.315 145.294 168.251 145.294ZM168.272 143.32C169.252 143.32 170.029 143.054 170.603 142.522C171.191 141.99 171.485 141.276 171.485 140.38V140.212C171.485 139.61 171.352 139.092 171.086 138.658C170.82 138.21 170.442 137.86 169.952 137.608C169.476 137.356 168.916 137.23 168.272 137.23C167.642 137.23 167.082 137.356 166.592 137.608C166.116 137.86 165.745 138.21 165.479 138.658C165.213 139.092 165.08 139.61 165.08 140.212V140.38C165.08 141.276 165.367 141.99 165.941 142.522C166.529 143.054 167.306 143.32 168.272 143.32ZM180.982 145.294C179.876 145.294 178.917 145.091 178.105 144.685C177.293 144.279 176.663 143.705 176.215 142.963C175.781 142.221 175.564 141.36 175.564 140.38V140.149H177.811V140.359C177.811 141.255 178.084 141.976 178.63 142.522C179.19 143.054 179.967 143.32 180.961 143.32C181.983 143.32 182.774 143.04 183.334 142.48C183.894 141.92 184.174 141.164 184.174 140.212V140.023C184.174 139.113 183.894 138.385 183.334 137.839C182.788 137.293 182.088 137.02 181.234 137.02C180.758 137.02 180.359 137.097 180.037 137.251C179.729 137.391 179.477 137.566 179.281 137.776C179.099 137.986 178.945 138.189 178.819 138.385H176.026V130.3H185.875V132.295H178.231V136.621H178.567C178.707 136.383 178.903 136.159 179.155 135.949C179.421 135.725 179.764 135.543 180.184 135.403C180.604 135.263 181.108 135.193 181.696 135.193C182.564 135.193 183.348 135.382 184.048 135.76C184.762 136.124 185.329 136.67 185.749 137.398C186.169 138.112 186.379 138.98 186.379 140.002V140.233C186.379 141.255 186.162 142.144 185.728 142.9C185.294 143.656 184.671 144.244 183.859 144.664C183.061 145.084 182.102 145.294 180.982 145.294ZM188.828 147.856V146.617H189.542C190.116 146.617 190.403 146.33 190.403 145.756V145.084H190.088C189.598 145.084 189.192 144.937 188.87 144.643C188.548 144.349 188.387 143.978 188.387 143.53C188.387 143.04 188.548 142.648 188.87 142.354C189.192 142.046 189.598 141.892 190.088 141.892C190.578 141.892 190.977 142.053 191.285 142.375C191.607 142.683 191.768 143.089 191.768 143.593V145.777C191.768 147.163 191.075 147.856 189.689 147.856H188.828ZM199.428 145.294C197.72 145.294 196.355 144.811 195.333 143.845C194.325 142.865 193.821 141.395 193.821 139.435V135.865C193.821 133.947 194.325 132.491 195.333 131.497C196.355 130.503 197.72 130.006 199.428 130.006C201.15 130.006 202.515 130.503 203.523 131.497C204.545 132.491 205.056 133.947 205.056 135.865V139.435C205.056 141.395 204.545 142.865 203.523 143.845C202.515 144.811 201.15 145.294 199.428 145.294ZM199.428 143.32C200.59 143.32 201.451 142.991 202.011 142.333C202.571 141.661 202.851 140.723 202.851 139.519V135.739C202.851 134.535 202.55 133.611 201.948 132.967C201.346 132.309 200.506 131.98 199.428 131.98C198.336 131.98 197.496 132.316 196.908 132.988C196.32 133.646 196.026 134.563 196.026 135.739V139.519C196.026 140.751 196.306 141.696 196.866 142.354C197.44 142.998 198.294 143.32 199.428 143.32ZM212.963 145.294C211.255 145.294 209.89 144.811 208.868 143.845C207.86 142.865 207.356 141.395 207.356 139.435V135.865C207.356 133.947 207.86 132.491 208.868 131.497C209.89 130.503 211.255 130.006 212.963 130.006C214.685 130.006 216.05 130.503 217.058 131.497C218.08 132.491 218.591 133.947 218.591 135.865V139.435C218.591 141.395 218.08 142.865 217.058 143.845C216.05 144.811 214.685 145.294 212.963 145.294ZM212.963 143.32C214.125 143.32 214.986 142.991 215.546 142.333C216.106 141.661 216.386 140.723 216.386 139.519V135.739C216.386 134.535 216.085 133.611 215.483 132.967C214.881 132.309 214.041 131.98 212.963 131.98C211.871 131.98 211.031 132.316 210.443 132.988C209.855 133.646 209.561 134.563 209.561 135.739V139.519C209.561 140.751 209.841 141.696 210.401 142.354C210.975 142.998 211.829 143.32 212.963 143.32ZM226.499 145.294C224.791 145.294 223.426 144.811 222.404 143.845C221.396 142.865 220.892 141.395 220.892 139.435V135.865C220.892 133.947 221.396 132.491 222.404 131.497C223.426 130.503 224.791 130.006 226.499 130.006C228.221 130.006 229.586 130.503 230.594 131.497C231.616 132.491 232.127 133.947 232.127 135.865V139.435C232.127 141.395 231.616 142.865 230.594 143.845C229.586 144.811 228.221 145.294 226.499 145.294ZM226.499 143.32C227.661 143.32 228.522 142.991 229.082 142.333C229.642 141.661 229.922 140.723 229.922 139.519V135.739C229.922 134.535 229.621 133.611 229.019 132.967C228.417 132.309 227.577 131.98 226.499 131.98C225.407 131.98 224.567 132.316 223.979 132.988C223.391 133.646 223.097 134.563 223.097 135.739V139.519C223.097 140.751 223.377 141.696 223.937 142.354C224.511 142.998 225.365 143.32 226.499 143.32Z" fill="#5C5C5C"/>
<path d="M682.28 166.168C681.256 166.168 680.444 165.88 679.844 165.304C679.244 164.72 678.944 163.88 678.944 162.784V160.816C678.944 159.72 679.244 158.884 679.844 158.308C680.444 157.724 681.256 157.432 682.28 157.432C683.288 157.432 684.064 157.712 684.608 158.272C685.16 158.832 685.436 159.596 685.436 160.564V160.636H684.152V160.528C684.152 159.96 683.996 159.496 683.684 159.136C683.38 158.776 682.912 158.596 682.28 158.596C681.64 158.596 681.14 158.792 680.78 159.184C680.42 159.568 680.24 160.104 680.24 160.792V162.808C680.24 163.488 680.42 164.024 680.78 164.416C681.14 164.808 681.64 165.004 682.28 165.004C682.912 165.004 683.38 164.824 683.684 164.464C683.996 164.096 684.152 163.632 684.152 163.072V162.868H685.436V163.036C685.436 164.004 685.16 164.768 684.608 165.328C684.064 165.888 683.288 166.168 682.28 166.168ZM688.743 166.168C688.319 166.168 687.939 166.096 687.603 165.952C687.275 165.808 687.011 165.596 686.811 165.316C686.619 165.036 686.523 164.696 686.523 164.296C686.523 163.888 686.619 163.552 686.811 163.288C687.011 163.016 687.279 162.812 687.615 162.676C687.959 162.54 688.347 162.472 688.779 162.472H690.579V162.088C690.579 161.744 690.475 161.468 690.267 161.26C690.059 161.052 689.739 160.948 689.307 160.948C688.883 160.948 688.559 161.048 688.335 161.248C688.111 161.448 687.963 161.708 687.891 162.028L686.739 161.656C686.835 161.336 686.987 161.048 687.195 160.792C687.411 160.528 687.695 160.316 688.047 160.156C688.399 159.996 688.823 159.916 689.319 159.916C690.087 159.916 690.691 160.112 691.131 160.504C691.571 160.896 691.791 161.452 691.791 162.172V164.608C691.791 164.848 691.903 164.968 692.127 164.968H692.631V166H691.707C691.427 166 691.199 165.928 691.023 165.784C690.847 165.64 690.759 165.444 690.759 165.196V165.16H690.579C690.515 165.28 690.419 165.42 690.291 165.58C690.163 165.74 689.975 165.88 689.727 166C689.479 166.112 689.151 166.168 688.743 166.168ZM688.923 165.148C689.419 165.148 689.819 165.008 690.123 164.728C690.427 164.44 690.579 164.048 690.579 163.552V163.432H688.851C688.523 163.432 688.259 163.504 688.059 163.648C687.859 163.784 687.759 163.988 687.759 164.26C687.759 164.532 687.863 164.748 688.071 164.908C688.279 165.068 688.563 165.148 688.923 165.148ZM693.832 166V160.084H695.044V160.972H695.236C695.348 160.732 695.548 160.508 695.836 160.3C696.124 160.092 696.552 159.988 697.12 159.988C697.568 159.988 697.964 160.088 698.308 160.288C698.66 160.488 698.936 160.772 699.136 161.14C699.336 161.5 699.436 161.936 699.436 162.448V166H698.2V162.544C698.2 162.032 698.072 161.656 697.816 161.416C697.56 161.168 697.208 161.044 696.76 161.044C696.248 161.044 695.836 161.212 695.524 161.548C695.22 161.884 695.068 162.372 695.068 163.012V166H693.832ZM703.663 166.168C703.175 166.168 702.723 166.048 702.307 165.808C701.891 165.568 701.555 165.224 701.299 164.776C701.051 164.32 700.927 163.772 700.927 163.132V162.952C700.927 162.32 701.051 161.776 701.299 161.32C701.547 160.864 701.879 160.516 702.295 160.276C702.711 160.036 703.167 159.916 703.663 159.916C704.047 159.916 704.367 159.964 704.623 160.06C704.887 160.156 705.103 160.28 705.271 160.432C705.439 160.576 705.567 160.728 705.655 160.888H705.847V157.6H707.083V166H705.871V165.16H705.679C705.527 165.416 705.295 165.648 704.983 165.856C704.679 166.064 704.239 166.168 703.663 166.168ZM704.011 165.088C704.547 165.088 704.987 164.916 705.331 164.572C705.683 164.228 705.859 163.736 705.859 163.096V162.988C705.859 162.356 705.687 161.868 705.343 161.524C704.999 161.18 704.555 161.008 704.011 161.008C703.483 161.008 703.043 161.18 702.691 161.524C702.347 161.868 702.175 162.356 702.175 162.988V163.096C702.175 163.736 702.347 164.228 702.691 164.572C703.043 164.916 703.483 165.088 704.011 165.088ZM708.903 166V160.084H710.139V166H708.903ZM709.527 159.28C709.287 159.28 709.083 159.204 708.915 159.052C708.755 158.892 708.675 158.688 708.675 158.44C708.675 158.192 708.755 157.992 708.915 157.84C709.083 157.68 709.287 157.6 709.527 157.6C709.775 157.6 709.979 157.68 710.139 157.84C710.299 157.992 710.379 158.192 710.379 158.44C710.379 158.688 710.299 158.892 710.139 159.052C709.979 159.204 709.775 159.28 709.527 159.28ZM713.809 166.168C713.385 166.168 713.005 166.096 712.669 165.952C712.341 165.808 712.077 165.596 711.877 165.316C711.685 165.036 711.589 164.696 711.589 164.296C711.589 163.888 711.685 163.552 711.877 163.288C712.077 163.016 712.345 162.812 712.681 162.676C713.025 162.54 713.413 162.472 713.845 162.472H715.645V162.088C715.645 161.744 715.541 161.468 715.333 161.26C715.125 161.052 714.805 160.948 714.373 160.948C713.949 160.948 713.625 161.048 713.401 161.248C713.177 161.448 713.029 161.708 712.957 162.028L711.805 161.656C711.901 161.336 712.053 161.048 712.261 160.792C712.477 160.528 712.761 160.316 713.113 160.156C713.465 159.996 713.889 159.916 714.385 159.916C715.153 159.916 715.757 160.112 716.197 160.504C716.637 160.896 716.857 161.452 716.857 162.172V164.608C716.857 164.848 716.969 164.968 717.193 164.968H717.697V166H716.773C716.493 166 716.265 165.928 716.089 165.784C715.913 165.64 715.825 165.444 715.825 165.196V165.16H715.645C715.581 165.28 715.485 165.42 715.357 165.58C715.229 165.74 715.041 165.88 714.793 166C714.545 166.112 714.217 166.168 713.809 166.168ZM713.989 165.148C714.485 165.148 714.885 165.008 715.189 164.728C715.493 164.44 715.645 164.048 715.645 163.552V163.432H713.917C713.589 163.432 713.325 163.504 713.125 163.648C712.925 163.784 712.825 163.988 712.825 164.26C712.825 164.532 712.929 164.748 713.137 164.908C713.345 165.068 713.629 165.148 713.989 165.148ZM720.709 166C720.349 166 720.061 165.892 719.845 165.676C719.637 165.46 719.533 165.172 719.533 164.812V161.128H717.901V160.084H719.533V158.128H720.769V160.084H722.533V161.128H720.769V164.596C720.769 164.836 720.881 164.956 721.105 164.956H722.341V166H720.709ZM726.486 166.168C725.886 166.168 725.362 166.044 724.914 165.796C724.466 165.54 724.114 165.184 723.858 164.728C723.61 164.264 723.486 163.728 723.486 163.12V162.976C723.486 162.36 723.61 161.824 723.858 161.368C724.106 160.904 724.45 160.548 724.89 160.3C725.338 160.044 725.854 159.916 726.438 159.916C727.006 159.916 727.502 160.044 727.926 160.3C728.358 160.548 728.694 160.896 728.934 161.344C729.174 161.792 729.294 162.316 729.294 162.916V163.384H724.746C724.762 163.904 724.934 164.32 725.262 164.632C725.598 164.936 726.014 165.088 726.51 165.088C726.974 165.088 727.322 164.984 727.554 164.776C727.794 164.568 727.978 164.328 728.106 164.056L729.126 164.584C729.014 164.808 728.85 165.044 728.634 165.292C728.426 165.54 728.15 165.748 727.806 165.916C727.462 166.084 727.022 166.168 726.486 166.168ZM724.758 162.436H728.034C728.002 161.988 727.842 161.64 727.554 161.392C727.266 161.136 726.89 161.008 726.426 161.008C725.962 161.008 725.582 161.136 725.286 161.392C724.998 161.64 724.822 161.988 724.758 162.436ZM733.206 166.168C732.454 166.168 731.83 166 731.334 165.664C730.838 165.328 730.534 164.82 730.422 164.14L731.574 163.864C731.638 164.192 731.746 164.452 731.898 164.644C732.05 164.836 732.238 164.972 732.462 165.052C732.694 165.132 732.942 165.172 733.206 165.172C733.598 165.172 733.898 165.096 734.106 164.944C734.322 164.792 734.43 164.596 734.43 164.356C734.43 164.116 734.33 163.94 734.13 163.828C733.93 163.716 733.634 163.624 733.242 163.552L732.834 163.48C732.434 163.408 732.07 163.304 731.742 163.168C731.414 163.032 731.154 162.844 730.962 162.604C730.77 162.364 730.674 162.056 730.674 161.68C730.674 161.12 730.882 160.688 731.298 160.384C731.714 160.072 732.266 159.916 732.954 159.916C733.618 159.916 734.162 160.068 734.586 160.372C735.018 160.668 735.298 161.072 735.426 161.584L734.274 161.908C734.202 161.548 734.05 161.296 733.818 161.152C733.586 161 733.298 160.924 732.954 160.924C732.618 160.924 732.354 160.988 732.162 161.116C731.97 161.236 731.874 161.408 731.874 161.632C731.874 161.872 731.966 162.048 732.15 162.16C732.342 162.272 732.598 162.356 732.918 162.412L733.338 162.484C733.762 162.556 734.15 162.656 734.502 162.784C734.854 162.912 735.13 163.096 735.33 163.336C735.538 163.576 735.642 163.896 735.642 164.296C735.642 164.888 735.422 165.348 734.982 165.676C734.542 166.004 733.95 166.168 733.206 166.168ZM740.109 166V157.6H741.405V161.2H744.933V157.6H746.229V166H744.933V162.376H741.405V166H740.109ZM748.02 166V160.084H749.256V166H748.02ZM748.644 159.28C748.404 159.28 748.2 159.204 748.032 159.052C747.872 158.892 747.792 158.688 747.792 158.44C747.792 158.192 747.872 157.992 748.032 157.84C748.2 157.68 748.404 157.6 748.644 157.6C748.892 157.6 749.096 157.68 749.256 157.84C749.416 157.992 749.496 158.192 749.496 158.44C749.496 158.688 749.416 158.892 749.256 159.052C749.096 159.204 748.892 159.28 748.644 159.28ZM751.09 166V160.084H752.302V160.78H752.494C752.59 160.532 752.742 160.352 752.95 160.24C753.166 160.12 753.43 160.06 753.742 160.06H754.45V161.176H753.694C753.294 161.176 752.966 161.288 752.71 161.512C752.454 161.728 752.326 162.064 752.326 162.52V166H751.09ZM758.232 166.168C757.632 166.168 757.108 166.044 756.66 165.796C756.212 165.54 755.86 165.184 755.604 164.728C755.356 164.264 755.232 163.728 755.232 163.12V162.976C755.232 162.36 755.356 161.824 755.604 161.368C755.852 160.904 756.196 160.548 756.636 160.3C757.084 160.044 757.6 159.916 758.184 159.916C758.752 159.916 759.248 160.044 759.672 160.3C760.104 160.548 760.44 160.896 760.68 161.344C760.92 161.792 761.04 162.316 761.04 162.916V163.384H756.492C756.508 163.904 756.68 164.32 757.008 164.632C757.344 164.936 757.76 165.088 758.256 165.088C758.72 165.088 759.068 164.984 759.3 164.776C759.54 164.568 759.724 164.328 759.852 164.056L760.872 164.584C760.76 164.808 760.596 165.044 760.38 165.292C760.172 165.54 759.896 165.748 759.552 165.916C759.208 166.084 758.768 166.168 758.232 166.168ZM756.504 162.436H759.78C759.748 161.988 759.588 161.64 759.3 161.392C759.012 161.136 758.636 161.008 758.172 161.008C757.708 161.008 757.328 161.136 757.032 161.392C756.744 161.64 756.568 161.988 756.504 162.436ZM764.976 166.168C764.488 166.168 764.036 166.048 763.62 165.808C763.204 165.568 762.868 165.224 762.612 164.776C762.364 164.32 762.24 163.772 762.24 163.132V162.952C762.24 162.32 762.364 161.776 762.612 161.32C762.86 160.864 763.192 160.516 763.608 160.276C764.024 160.036 764.48 159.916 764.976 159.916C765.36 159.916 765.68 159.964 765.936 160.06C766.2 160.156 766.416 160.28 766.584 160.432C766.752 160.576 766.88 160.728 766.968 160.888H767.16V157.6H768.396V166H767.184V165.16H766.992C766.84 165.416 766.608 165.648 766.296 165.856C765.992 166.064 765.552 166.168 764.976 166.168ZM765.324 165.088C765.86 165.088 766.3 164.916 766.644 164.572C766.996 164.228 767.172 163.736 767.172 163.096V162.988C767.172 162.356 767 161.868 766.656 161.524C766.312 161.18 765.868 161.008 765.324 161.008C764.796 161.008 764.356 161.18 764.004 161.524C763.66 161.868 763.488 162.356 763.488 162.988V163.096C763.488 163.736 763.66 164.228 764.004 164.572C764.356 164.916 764.796 165.088 765.324 165.088Z" fill="#5C5C5C"/>
<path d="M711.005 145V131.854H710.669L708.254 136.81H705.923L709.178 130.3H713.21V145H711.005ZM721.076 145.294C719.97 145.294 719.011 145.091 718.199 144.685C717.387 144.279 716.757 143.705 716.309 142.963C715.875 142.221 715.658 141.36 715.658 140.38V140.149H717.905V140.359C717.905 141.255 718.178 141.976 718.724 142.522C719.284 143.054 720.061 143.32 721.055 143.32C722.077 143.32 722.868 143.04 723.428 142.48C723.988 141.92 724.268 141.164 724.268 140.212V140.023C724.268 139.113 723.988 138.385 723.428 137.839C722.882 137.293 722.182 137.02 721.328 137.02C720.852 137.02 720.453 137.097 720.131 137.251C719.823 137.391 719.571 137.566 719.375 137.776C719.193 137.986 719.039 138.189 718.913 138.385H716.12V130.3H725.969V132.295H718.325V136.621H718.661C718.801 136.383 718.997 136.159 719.249 135.949C719.515 135.725 719.858 135.543 720.278 135.403C720.698 135.263 721.202 135.193 721.79 135.193C722.658 135.193 723.442 135.382 724.142 135.76C724.856 136.124 725.423 136.67 725.843 137.398C726.263 138.112 726.473 138.98 726.473 140.002V140.233C726.473 141.255 726.256 142.144 725.822 142.9C725.388 143.656 724.765 144.244 723.953 144.664C723.155 145.084 722.196 145.294 721.076 145.294ZM734.067 145.294C732.359 145.294 730.994 144.811 729.972 143.845C728.964 142.865 728.46 141.395 728.46 139.435V135.865C728.46 133.947 728.964 132.491 729.972 131.497C730.994 130.503 732.359 130.006 734.067 130.006C735.789 130.006 737.154 130.503 738.162 131.497C739.184 132.491 739.695 133.947 739.695 135.865V139.435C739.695 141.395 739.184 142.865 738.162 143.845C737.154 144.811 735.789 145.294 734.067 145.294ZM734.067 143.32C735.229 143.32 736.09 142.991 736.65 142.333C737.21 141.661 737.49 140.723 737.49 139.519V135.739C737.49 134.535 737.189 133.611 736.587 132.967C735.985 132.309 735.145 131.98 734.067 131.98C732.975 131.98 732.135 132.316 731.547 132.988C730.959 133.646 730.665 134.563 730.665 135.739V139.519C730.665 140.751 730.945 141.696 731.505 142.354C732.079 142.998 732.933 143.32 734.067 143.32Z" fill="#5C5C5C"/>
<path d="M557.624 166V157.6H558.92V166H557.624ZM560.707 166V160.084H561.919V160.972H562.111C562.223 160.732 562.423 160.508 562.711 160.3C562.999 160.092 563.427 159.988 563.995 159.988C564.443 159.988 564.839 160.088 565.183 160.288C565.535 160.488 565.811 160.772 566.011 161.14C566.211 161.5 566.311 161.936 566.311 162.448V166H565.075V162.544C565.075 162.032 564.947 161.656 564.691 161.416C564.435 161.168 564.083 161.044 563.635 161.044C563.123 161.044 562.711 161.212 562.399 161.548C562.095 161.884 561.943 162.372 561.943 163.012V166H560.707ZM570.146 166C569.786 166 569.498 165.892 569.282 165.676C569.074 165.46 568.97 165.172 568.97 164.812V161.128H567.338V160.084H568.97V158.128H570.206V160.084H571.97V161.128H570.206V164.596C570.206 164.836 570.318 164.956 570.542 164.956H571.778V166H570.146ZM575.923 166.168C575.323 166.168 574.799 166.044 574.351 165.796C573.903 165.54 573.551 165.184 573.295 164.728C573.047 164.264 572.923 163.728 572.923 163.12V162.976C572.923 162.36 573.047 161.824 573.295 161.368C573.543 160.904 573.887 160.548 574.327 160.3C574.775 160.044 575.291 159.916 575.875 159.916C576.443 159.916 576.939 160.044 577.363 160.3C577.795 160.548 578.131 160.896 578.371 161.344C578.611 161.792 578.731 162.316 578.731 162.916V163.384H574.183C574.199 163.904 574.371 164.32 574.699 164.632C575.035 164.936 575.451 165.088 575.947 165.088C576.411 165.088 576.759 164.984 576.991 164.776C577.231 164.568 577.415 164.328 577.543 164.056L578.563 164.584C578.451 164.808 578.287 165.044 578.071 165.292C577.863 165.54 577.587 165.748 577.243 165.916C576.899 166.084 576.459 166.168 575.923 166.168ZM574.195 162.436H577.471C577.439 161.988 577.279 161.64 576.991 161.392C576.703 161.136 576.327 161.008 575.863 161.008C575.399 161.008 575.019 161.136 574.723 161.392C574.435 161.64 574.259 161.988 574.195 162.436ZM580.219 166V160.084H581.431V160.78H581.623C581.719 160.532 581.871 160.352 582.079 160.24C582.295 160.12 582.559 160.06 582.871 160.06H583.579V161.176H582.823C582.423 161.176 582.095 161.288 581.839 161.512C581.583 161.728 581.455 162.064 581.455 162.52V166H580.219ZM586.227 166L584.235 160.084H585.543L587.115 165.088H587.307L588.879 160.084H590.187L588.195 166H586.227ZM591.387 166V160.084H592.623V166H591.387ZM592.011 159.28C591.771 159.28 591.567 159.204 591.399 159.052C591.239 158.892 591.159 158.688 591.159 158.44C591.159 158.192 591.239 157.992 591.399 157.84C591.567 157.68 591.771 157.6 592.011 157.6C592.259 157.6 592.463 157.68 592.623 157.84C592.783 157.992 592.863 158.192 592.863 158.44C592.863 158.688 592.783 158.892 592.623 159.052C592.463 159.204 592.259 159.28 592.011 159.28ZM597.169 166.168C596.569 166.168 596.045 166.044 595.597 165.796C595.149 165.54 594.797 165.184 594.541 164.728C594.293 164.264 594.169 163.728 594.169 163.12V162.976C594.169 162.36 594.293 161.824 594.541 161.368C594.789 160.904 595.133 160.548 595.573 160.3C596.021 160.044 596.537 159.916 597.121 159.916C597.689 159.916 598.185 160.044 598.609 160.3C599.041 160.548 599.377 160.896 599.617 161.344C599.857 161.792 599.977 162.316 599.977 162.916V163.384H595.429C595.445 163.904 595.617 164.32 595.945 164.632C596.281 164.936 596.697 165.088 597.193 165.088C597.657 165.088 598.005 164.984 598.237 164.776C598.477 164.568 598.661 164.328 598.789 164.056L599.809 164.584C599.697 164.808 599.533 165.044 599.317 165.292C599.109 165.54 598.833 165.748 598.489 165.916C598.145 166.084 597.705 166.168 597.169 166.168ZM595.441 162.436H598.717C598.685 161.988 598.525 161.64 598.237 161.392C597.949 161.136 597.573 161.008 597.109 161.008C596.645 161.008 596.265 161.136 595.969 161.392C595.681 161.64 595.505 161.988 595.441 162.436ZM602.042 166L601.034 160.084H602.27L603.014 165.172H603.206L604.238 160.084H606.242L607.262 165.172H607.454L608.198 160.084H609.434L608.426 166H606.35L605.33 160.924H605.138L604.118 166H602.042ZM616.381 166.168C615.629 166.168 615.005 166 614.509 165.664C614.013 165.328 613.709 164.82 613.597 164.14L614.749 163.864C614.813 164.192 614.921 164.452 615.073 164.644C615.225 164.836 615.413 164.972 615.637 165.052C615.869 165.132 616.117 165.172 616.381 165.172C616.773 165.172 617.073 165.096 617.281 164.944C617.497 164.792 617.605 164.596 617.605 164.356C617.605 164.116 617.505 163.94 617.305 163.828C617.105 163.716 616.809 163.624 616.417 163.552L616.009 163.48C615.609 163.408 615.245 163.304 614.917 163.168C614.589 163.032 614.329 162.844 614.137 162.604C613.945 162.364 613.849 162.056 613.849 161.68C613.849 161.12 614.057 160.688 614.473 160.384C614.889 160.072 615.441 159.916 616.129 159.916C616.793 159.916 617.337 160.068 617.761 160.372C618.193 160.668 618.473 161.072 618.601 161.584L617.449 161.908C617.377 161.548 617.225 161.296 616.993 161.152C616.761 161 616.473 160.924 616.129 160.924C615.793 160.924 615.529 160.988 615.337 161.116C615.145 161.236 615.049 161.408 615.049 161.632C615.049 161.872 615.141 162.048 615.325 162.16C615.517 162.272 615.773 162.356 616.093 162.412L616.513 162.484C616.937 162.556 617.325 162.656 617.677 162.784C618.029 162.912 618.305 163.096 618.505 163.336C618.713 163.576 618.817 163.896 618.817 164.296C618.817 164.888 618.597 165.348 618.157 165.676C617.717 166.004 617.125 166.168 616.381 166.168ZM622.974 166.168C622.374 166.168 621.85 166.044 621.402 165.796C620.954 165.54 620.602 165.184 620.346 164.728C620.098 164.264 619.974 163.728 619.974 163.12V162.976C619.974 162.36 620.098 161.824 620.346 161.368C620.594 160.904 620.938 160.548 621.378 160.3C621.826 160.044 622.342 159.916 622.926 159.916C623.494 159.916 623.99 160.044 624.414 160.3C624.846 160.548 625.182 160.896 625.422 161.344C625.662 161.792 625.782 162.316 625.782 162.916V163.384H621.234C621.25 163.904 621.422 164.32 621.75 164.632C622.086 164.936 622.502 165.088 622.998 165.088C623.462 165.088 623.81 164.984 624.042 164.776C624.282 164.568 624.466 164.328 624.594 164.056L625.614 164.584C625.502 164.808 625.338 165.044 625.122 165.292C624.914 165.54 624.638 165.748 624.294 165.916C623.95 166.084 623.51 166.168 622.974 166.168ZM621.246 162.436H624.522C624.49 161.988 624.33 161.64 624.042 161.392C623.754 161.136 623.378 161.008 622.914 161.008C622.45 161.008 622.07 161.136 621.774 161.392C621.486 161.64 621.31 161.988 621.246 162.436ZM629.278 166C628.918 166 628.63 165.892 628.414 165.676C628.206 165.46 628.102 165.172 628.102 164.812V161.128H626.47V160.084H628.102V158.128H629.338V160.084H631.102V161.128H629.338V164.596C629.338 164.836 629.45 164.956 629.674 164.956H630.91V166H629.278Z" fill="#5C5C5C"/>
<path d="M580.107 145.294C579.029 145.294 578.07 145.098 577.23 144.706C576.39 144.314 575.732 143.747 575.256 143.005C574.794 142.263 574.563 141.381 574.563 140.359V139.981H576.768V140.317C576.768 141.241 577.069 141.976 577.671 142.522C578.287 143.054 579.099 143.32 580.107 143.32C581.115 143.32 581.899 143.068 582.459 142.564C583.019 142.06 583.299 141.423 583.299 140.653V140.464C583.299 139.918 583.166 139.477 582.9 139.141C582.634 138.805 582.277 138.56 581.829 138.406C581.381 138.238 580.877 138.154 580.317 138.154H577.65V135.613L582.816 132.568V132.274H574.92V130.3H585.21V133.282L580.275 136.222V136.516H581.178C581.92 136.516 582.62 136.656 583.278 136.936C583.936 137.216 584.468 137.643 584.874 138.217C585.294 138.791 585.504 139.519 585.504 140.401V140.653C585.504 141.591 585.28 142.41 584.832 143.11C584.384 143.796 583.754 144.335 582.942 144.727C582.13 145.105 581.185 145.294 580.107 145.294ZM593.221 145.294C591.513 145.294 590.148 144.811 589.126 143.845C588.118 142.865 587.614 141.395 587.614 139.435V135.865C587.614 133.947 588.118 132.491 589.126 131.497C590.148 130.503 591.513 130.006 593.221 130.006C594.943 130.006 596.308 130.503 597.316 131.497C598.338 132.491 598.849 133.947 598.849 135.865V139.435C598.849 141.395 598.338 142.865 597.316 143.845C596.308 144.811 594.943 145.294 593.221 145.294ZM593.221 143.32C594.383 143.32 595.244 142.991 595.804 142.333C596.364 141.661 596.644 140.723 596.644 139.519V135.739C596.644 134.535 596.343 133.611 595.741 132.967C595.139 132.309 594.299 131.98 593.221 131.98C592.129 131.98 591.289 132.316 590.701 132.988C590.113 133.646 589.819 134.563 589.819 135.739V139.519C589.819 140.751 590.099 141.696 590.659 142.354C591.233 142.998 592.087 143.32 593.221 143.32ZM606.756 145.294C605.048 145.294 603.683 144.811 602.661 143.845C601.653 142.865 601.149 141.395 601.149 139.435V135.865C601.149 133.947 601.653 132.491 602.661 131.497C603.683 130.503 605.048 130.006 606.756 130.006C608.478 130.006 609.843 130.503 610.851 131.497C611.873 132.491 612.384 133.947 612.384 135.865V139.435C612.384 141.395 611.873 142.865 610.851 143.845C609.843 144.811 608.478 145.294 606.756 145.294ZM606.756 143.32C607.918 143.32 608.779 142.991 609.339 142.333C609.899 141.661 610.179 140.723 610.179 139.519V135.739C610.179 134.535 609.878 133.611 609.276 132.967C608.674 132.309 607.834 131.98 606.756 131.98C605.664 131.98 604.824 132.316 604.236 132.988C603.648 133.646 603.354 134.563 603.354 135.739V139.519C603.354 140.751 603.634 141.696 604.194 142.354C604.768 142.998 605.622 143.32 606.756 143.32Z" fill="#5C5C5C"/>
<path d="M426.566 166V157.6H430.094C430.614 157.6 431.07 157.692 431.462 157.876C431.862 158.052 432.17 158.308 432.386 158.644C432.61 158.98 432.722 159.38 432.722 159.844V159.976C432.722 160.504 432.594 160.928 432.338 161.248C432.09 161.56 431.786 161.78 431.426 161.908V162.1C431.73 162.116 431.974 162.22 432.158 162.412C432.342 162.596 432.434 162.864 432.434 163.216V166H431.126V163.396C431.126 163.18 431.07 163.008 430.958 162.88C430.846 162.752 430.666 162.688 430.418 162.688H427.862V166H426.566ZM427.862 161.512H429.95C430.414 161.512 430.774 161.396 431.03 161.164C431.286 160.924 431.414 160.6 431.414 160.192V160.096C431.414 159.688 431.286 159.368 431.03 159.136C430.782 158.896 430.422 158.776 429.95 158.776H427.862V161.512ZM436.896 166.168C436.296 166.168 435.772 166.044 435.324 165.796C434.876 165.54 434.524 165.184 434.268 164.728C434.02 164.264 433.896 163.728 433.896 163.12V162.976C433.896 162.36 434.02 161.824 434.268 161.368C434.516 160.904 434.86 160.548 435.3 160.3C435.748 160.044 436.264 159.916 436.848 159.916C437.416 159.916 437.912 160.044 438.336 160.3C438.768 160.548 439.104 160.896 439.344 161.344C439.584 161.792 439.704 162.316 439.704 162.916V163.384H435.156C435.172 163.904 435.344 164.32 435.672 164.632C436.008 164.936 436.424 165.088 436.92 165.088C437.384 165.088 437.732 164.984 437.964 164.776C438.204 164.568 438.388 164.328 438.516 164.056L439.536 164.584C439.424 164.808 439.26 165.044 439.044 165.292C438.836 165.54 438.56 165.748 438.216 165.916C437.872 166.084 437.432 166.168 436.896 166.168ZM435.168 162.436H438.444C438.412 161.988 438.252 161.64 437.964 161.392C437.676 161.136 437.3 161.008 436.836 161.008C436.372 161.008 435.992 161.136 435.696 161.392C435.408 161.64 435.232 161.988 435.168 162.436ZM443.027 166.168C442.603 166.168 442.223 166.096 441.887 165.952C441.559 165.808 441.295 165.596 441.095 165.316C440.903 165.036 440.807 164.696 440.807 164.296C440.807 163.888 440.903 163.552 441.095 163.288C441.295 163.016 441.563 162.812 441.899 162.676C442.243 162.54 442.631 162.472 443.063 162.472H444.863V162.088C444.863 161.744 444.759 161.468 444.551 161.26C444.343 161.052 444.023 160.948 443.591 160.948C443.167 160.948 442.843 161.048 442.619 161.248C442.395 161.448 442.247 161.708 442.175 162.028L441.023 161.656C441.119 161.336 441.271 161.048 441.479 160.792C441.695 160.528 441.979 160.316 442.331 160.156C442.683 159.996 443.107 159.916 443.603 159.916C444.371 159.916 444.975 160.112 445.415 160.504C445.855 160.896 446.075 161.452 446.075 162.172V164.608C446.075 164.848 446.187 164.968 446.411 164.968H446.915V166H445.991C445.711 166 445.483 165.928 445.307 165.784C445.131 165.64 445.043 165.444 445.043 165.196V165.16H444.863C444.799 165.28 444.703 165.42 444.575 165.58C444.447 165.74 444.259 165.88 444.011 166C443.763 166.112 443.435 166.168 443.027 166.168ZM443.207 165.148C443.703 165.148 444.103 165.008 444.407 164.728C444.711 164.44 444.863 164.048 444.863 163.552V163.432H443.135C442.807 163.432 442.543 163.504 442.343 163.648C442.143 163.784 442.043 163.988 442.043 164.26C442.043 164.532 442.147 164.748 442.355 164.908C442.563 165.068 442.847 165.148 443.207 165.148ZM450.725 166.168C450.157 166.168 449.641 166.048 449.177 165.808C448.721 165.568 448.357 165.22 448.085 164.764C447.821 164.308 447.689 163.76 447.689 163.12V162.964C447.689 162.324 447.821 161.78 448.085 161.332C448.357 160.876 448.721 160.528 449.177 160.288C449.641 160.04 450.157 159.916 450.725 159.916C451.293 159.916 451.777 160.02 452.177 160.228C452.577 160.436 452.897 160.712 453.137 161.056C453.385 161.4 453.545 161.78 453.617 162.196L452.417 162.448C452.377 162.184 452.293 161.944 452.165 161.728C452.037 161.512 451.857 161.34 451.625 161.212C451.393 161.084 451.101 161.02 450.749 161.02C450.405 161.02 450.093 161.1 449.813 161.26C449.541 161.412 449.325 161.636 449.165 161.932C449.005 162.22 448.925 162.572 448.925 162.988V163.096C448.925 163.512 449.005 163.868 449.165 164.164C449.325 164.46 449.541 164.684 449.813 164.836C450.093 164.988 450.405 165.064 450.749 165.064C451.269 165.064 451.665 164.932 451.937 164.668C452.209 164.396 452.381 164.052 452.453 163.636L453.653 163.912C453.557 164.32 453.385 164.696 453.137 165.04C452.897 165.384 452.577 165.66 452.177 165.868C451.777 166.068 451.293 166.168 450.725 166.168ZM455.078 166V157.6H456.314V160.924H456.506C456.586 160.772 456.698 160.624 456.842 160.48C456.994 160.336 457.19 160.22 457.43 160.132C457.678 160.036 457.99 159.988 458.366 159.988C458.814 159.988 459.21 160.088 459.554 160.288C459.906 160.488 460.182 160.772 460.382 161.14C460.582 161.5 460.682 161.936 460.682 162.448V166H459.446V162.544C459.446 162.032 459.318 161.656 459.062 161.416C458.806 161.168 458.454 161.044 458.006 161.044C457.494 161.044 457.082 161.212 456.77 161.548C456.466 161.884 456.314 162.372 456.314 163.012V166H455.078ZM465.173 166.168C464.573 166.168 464.049 166.044 463.601 165.796C463.153 165.54 462.801 165.184 462.545 164.728C462.297 164.264 462.173 163.728 462.173 163.12V162.976C462.173 162.36 462.297 161.824 462.545 161.368C462.793 160.904 463.137 160.548 463.577 160.3C464.025 160.044 464.541 159.916 465.125 159.916C465.693 159.916 466.189 160.044 466.613 160.3C467.045 160.548 467.381 160.896 467.621 161.344C467.861 161.792 467.981 162.316 467.981 162.916V163.384H463.433C463.449 163.904 463.621 164.32 463.949 164.632C464.285 164.936 464.701 165.088 465.197 165.088C465.661 165.088 466.009 164.984 466.241 164.776C466.481 164.568 466.665 164.328 466.793 164.056L467.813 164.584C467.701 164.808 467.537 165.044 467.321 165.292C467.113 165.54 466.837 165.748 466.493 165.916C466.149 166.084 465.709 166.168 465.173 166.168ZM463.445 162.436H466.721C466.689 161.988 466.529 161.64 466.241 161.392C465.953 161.136 465.577 161.008 465.113 161.008C464.649 161.008 464.269 161.136 463.973 161.392C463.685 161.64 463.509 161.988 463.445 162.436ZM471.917 166.168C471.429 166.168 470.977 166.048 470.561 165.808C470.145 165.568 469.809 165.224 469.553 164.776C469.305 164.32 469.181 163.772 469.181 163.132V162.952C469.181 162.32 469.305 161.776 469.553 161.32C469.801 160.864 470.133 160.516 470.549 160.276C470.965 160.036 471.421 159.916 471.917 159.916C472.301 159.916 472.621 159.964 472.877 160.06C473.141 160.156 473.357 160.28 473.525 160.432C473.693 160.576 473.821 160.728 473.909 160.888H474.101V157.6H475.337V166H474.125V165.16H473.933C473.781 165.416 473.549 165.648 473.237 165.856C472.933 166.064 472.493 166.168 471.917 166.168ZM472.265 165.088C472.801 165.088 473.241 164.916 473.585 164.572C473.937 164.228 474.113 163.736 474.113 163.096V162.988C474.113 162.356 473.941 161.868 473.597 161.524C473.253 161.18 472.809 161.008 472.265 161.008C471.737 161.008 471.297 161.18 470.945 161.524C470.601 161.868 470.429 162.356 470.429 162.988V163.096C470.429 163.736 470.601 164.228 470.945 164.572C471.297 164.916 471.737 165.088 472.265 165.088ZM483.335 166.168C482.303 166.168 481.483 165.88 480.875 165.304C480.267 164.72 479.963 163.88 479.963 162.784V160.816C479.963 159.72 480.267 158.884 480.875 158.308C481.483 157.724 482.303 157.432 483.335 157.432C484.367 157.432 485.187 157.724 485.795 158.308C486.411 158.884 486.719 159.72 486.719 160.816V162.784C486.719 163.88 486.411 164.72 485.795 165.304C485.187 165.88 484.367 166.168 483.335 166.168ZM483.335 165.004C483.999 165.004 484.511 164.812 484.871 164.428C485.231 164.036 485.411 163.504 485.411 162.832V160.768C485.411 160.096 485.231 159.568 484.871 159.184C484.511 158.792 483.999 158.596 483.335 158.596C482.687 158.596 482.179 158.792 481.811 159.184C481.443 159.568 481.259 160.096 481.259 160.768V162.832C481.259 163.504 481.443 164.036 481.811 164.428C482.179 164.812 482.687 165.004 483.335 165.004ZM490.557 166.108C490.109 166.108 489.709 166.008 489.357 165.808C489.005 165.608 488.729 165.324 488.529 164.956C488.329 164.588 488.229 164.148 488.229 163.636V160.084H489.465V163.552C489.465 164.064 489.593 164.444 489.849 164.692C490.105 164.932 490.461 165.052 490.917 165.052C491.421 165.052 491.825 164.884 492.129 164.548C492.441 164.204 492.597 163.712 492.597 163.072V160.084H493.833V166H492.621V165.112H492.429C492.317 165.352 492.117 165.58 491.829 165.796C491.541 166.004 491.117 166.108 490.557 166.108ZM497.88 166C497.52 166 497.232 165.892 497.016 165.676C496.808 165.46 496.704 165.172 496.704 164.812V161.128H495.072V160.084H496.704V158.128H497.94V160.084H499.704V161.128H497.94V164.596C497.94 164.836 498.052 164.956 498.276 164.956H499.512V166H497.88Z" fill="#5C5C5C"/>
<path d="M450.263 145.294C449.185 145.294 448.226 145.098 447.386 144.706C446.546 144.314 445.888 143.747 445.412 143.005C444.95 142.263 444.719 141.381 444.719 140.359V139.981H446.924V140.317C446.924 141.241 447.225 141.976 447.827 142.522C448.443 143.054 449.255 143.32 450.263 143.32C451.271 143.32 452.055 143.068 452.615 142.564C453.175 142.06 453.455 141.423 453.455 140.653V140.464C453.455 139.918 453.322 139.477 453.056 139.141C452.79 138.805 452.433 138.56 451.985 138.406C451.537 138.238 451.033 138.154 450.473 138.154H447.806V135.613L452.972 132.568V132.274H445.076V130.3H455.366V133.282L450.431 136.222V136.516H451.334C452.076 136.516 452.776 136.656 453.434 136.936C454.092 137.216 454.624 137.643 455.03 138.217C455.45 138.791 455.66 139.519 455.66 140.401V140.653C455.66 141.591 455.436 142.41 454.988 143.11C454.54 143.796 453.91 144.335 453.098 144.727C452.286 145.105 451.341 145.294 450.263 145.294ZM459.576 145V144.475C459.576 143.943 459.618 143.502 459.702 143.152C459.786 142.788 459.961 142.368 460.227 141.892L465.477 132.547V132.274H457.224V130.3H467.766V132.904L462.243 142.816C462.075 143.124 461.956 143.404 461.886 143.656C461.816 143.894 461.781 144.195 461.781 144.559V145H459.576ZM474.687 145.294C473.581 145.294 472.622 145.091 471.81 144.685C470.998 144.279 470.368 143.705 469.92 142.963C469.486 142.221 469.269 141.36 469.269 140.38V140.149H471.516V140.359C471.516 141.255 471.789 141.976 472.335 142.522C472.895 143.054 473.672 143.32 474.666 143.32C475.688 143.32 476.479 143.04 477.039 142.48C477.599 141.92 477.879 141.164 477.879 140.212V140.023C477.879 139.113 477.599 138.385 477.039 137.839C476.493 137.293 475.793 137.02 474.939 137.02C474.463 137.02 474.064 137.097 473.742 137.251C473.434 137.391 473.182 137.566 472.986 137.776C472.804 137.986 472.65 138.189 472.524 138.385H469.731V130.3H479.58V132.295H471.936V136.621H472.272C472.412 136.383 472.608 136.159 472.86 135.949C473.126 135.725 473.469 135.543 473.889 135.403C474.309 135.263 474.813 135.193 475.401 135.193C476.269 135.193 477.053 135.382 477.753 135.76C478.467 136.124 479.034 136.67 479.454 137.398C479.874 138.112 480.084 138.98 480.084 140.002V140.233C480.084 141.255 479.867 142.144 479.433 142.9C478.999 143.656 478.376 144.244 477.564 144.664C476.766 145.084 475.807 145.294 474.687 145.294Z" fill="#5C5C5C"/>
<path d="M282.549 156.34C283.211 156.975 283.543 157.768 283.543 158.72C283.543 159.672 283.211 160.47 282.549 161.114C281.886 161.749 281.055 162.066 280.057 162.066H278.783V165.314H276.753V155.374H280.057C281.055 155.374 281.886 155.696 282.549 156.34ZM281.149 159.756C281.429 159.486 281.569 159.14 281.569 158.72C281.569 158.3 281.429 157.955 281.149 157.684C280.869 157.414 280.495 157.278 280.029 157.278H278.783V160.162H280.029C280.495 160.162 280.869 160.027 281.149 159.756ZM284.705 165.314V158.314H286.623V159.434C286.745 159.089 286.964 158.804 287.281 158.58C287.608 158.347 287.967 158.23 288.359 158.23C288.602 158.23 288.817 158.258 289.003 158.314V160.26C288.695 160.158 288.406 160.106 288.135 160.106C287.678 160.106 287.309 160.274 287.029 160.61C286.759 160.937 286.623 161.39 286.623 161.968V165.314H284.705ZM295.807 164.418C295.088 165.118 294.22 165.468 293.203 165.468C292.185 165.468 291.317 165.118 290.599 164.418C289.88 163.709 289.521 162.841 289.521 161.814C289.521 160.797 289.88 159.934 290.599 159.224C291.317 158.515 292.185 158.16 293.203 158.16C294.22 158.16 295.088 158.515 295.807 159.224C296.525 159.934 296.885 160.797 296.885 161.814C296.885 162.841 296.525 163.709 295.807 164.418ZM293.203 163.676C293.697 163.676 294.108 163.504 294.435 163.158C294.771 162.804 294.939 162.356 294.939 161.814C294.939 161.273 294.771 160.83 294.435 160.484C294.108 160.13 293.697 159.952 293.203 159.952C292.699 159.952 292.279 160.13 291.943 160.484C291.616 160.83 291.453 161.273 291.453 161.814C291.453 162.356 291.616 162.804 291.943 163.158C292.279 163.504 292.699 163.676 293.203 163.676ZM300.97 165.468C300.074 165.468 299.332 165.244 298.744 164.796C298.156 164.348 297.843 163.779 297.806 163.088H299.808C299.845 163.387 299.976 163.616 300.2 163.774C300.424 163.924 300.699 163.998 301.026 163.998C301.633 163.998 301.936 163.812 301.936 163.438C301.936 163.252 301.866 163.112 301.726 163.018C301.595 162.916 301.371 162.822 301.054 162.738L299.738 162.402C299.141 162.244 298.693 161.978 298.394 161.604C298.105 161.222 297.96 160.764 297.96 160.232C297.96 159.626 298.212 159.131 298.716 158.748C299.229 158.356 299.915 158.16 300.774 158.16C301.558 158.16 302.211 158.361 302.734 158.762C303.257 159.154 303.546 159.691 303.602 160.372H301.67C301.586 159.896 301.278 159.658 300.746 159.658C300.494 159.658 300.293 159.705 300.144 159.798C299.995 159.892 299.92 160.022 299.92 160.19C299.92 160.498 300.186 160.713 300.718 160.834L301.95 161.17C302.631 161.338 303.126 161.604 303.434 161.968C303.742 162.323 303.896 162.78 303.896 163.34C303.896 163.984 303.621 164.502 303.07 164.894C302.529 165.277 301.829 165.468 300.97 165.468ZM307.2 168.24H305.282V158.314H307.2V159.098C307.377 158.846 307.648 158.627 308.012 158.44C308.376 158.254 308.782 158.16 309.23 158.16C310.154 158.16 310.933 158.52 311.568 159.238C312.202 159.957 312.52 160.816 312.52 161.814C312.52 162.813 312.202 163.672 311.568 164.39C310.933 165.109 310.154 165.468 309.23 165.468C308.782 165.468 308.376 165.375 308.012 165.188C307.648 165.002 307.377 164.782 307.2 164.53V168.24ZM307.522 163.186C307.848 163.541 308.278 163.718 308.81 163.718C309.342 163.718 309.766 163.541 310.084 163.186C310.41 162.832 310.574 162.374 310.574 161.814C310.574 161.254 310.41 160.797 310.084 160.442C309.766 160.088 309.342 159.91 308.81 159.91C308.278 159.91 307.848 160.088 307.522 160.442C307.204 160.797 307.046 161.254 307.046 161.814C307.046 162.374 307.204 162.832 307.522 163.186ZM317.142 165.468C316.069 165.468 315.187 165.123 314.496 164.432C313.815 163.742 313.474 162.864 313.474 161.8C313.474 160.755 313.82 159.887 314.51 159.196C315.21 158.506 316.092 158.16 317.156 158.16C318.23 158.16 319.121 158.529 319.83 159.266C320.54 159.994 320.866 160.993 320.81 162.262H315.35C315.388 162.701 315.57 163.07 315.896 163.368C316.223 163.658 316.671 163.802 317.24 163.802C317.586 163.802 317.889 163.737 318.15 163.606C318.421 163.466 318.612 163.275 318.724 163.032H320.726C320.521 163.751 320.092 164.339 319.438 164.796C318.785 165.244 318.02 165.468 317.142 165.468ZM317.1 159.714C316.662 159.714 316.293 159.831 315.994 160.064C315.705 160.288 315.514 160.601 315.42 161.002H318.71C318.608 160.564 318.402 160.242 318.094 160.036C317.796 159.822 317.464 159.714 317.1 159.714ZM325.441 165.468C324.387 165.468 323.509 165.118 322.809 164.418C322.109 163.709 321.759 162.841 321.759 161.814C321.759 160.788 322.109 159.924 322.809 159.224C323.509 158.515 324.387 158.16 325.441 158.16C326.375 158.16 327.154 158.422 327.779 158.944C328.414 159.467 328.829 160.148 329.025 160.988H327.037C326.729 160.26 326.197 159.896 325.441 159.896C324.928 159.896 324.508 160.074 324.181 160.428C323.855 160.774 323.691 161.236 323.691 161.814C323.691 162.393 323.855 162.86 324.181 163.214C324.508 163.56 324.928 163.732 325.441 163.732C326.197 163.732 326.729 163.368 327.037 162.64H329.025C328.829 163.48 328.414 164.162 327.779 164.684C327.154 165.207 326.375 165.468 325.441 165.468ZM333.621 165.398C332.837 165.398 332.193 165.184 331.689 164.754C331.194 164.316 330.947 163.686 330.947 162.864V159.994H329.533V158.314H330.947V156.368H332.865V158.314H334.839V159.994H332.865V162.486C332.865 162.916 332.958 163.224 333.145 163.41C333.331 163.588 333.635 163.676 334.055 163.676C334.353 163.676 334.615 163.634 334.839 163.55V165.244C334.503 165.347 334.097 165.398 333.621 165.398ZM338.909 165.468C338.013 165.468 337.271 165.244 336.683 164.796C336.095 164.348 335.783 163.779 335.745 163.088H337.747C337.785 163.387 337.915 163.616 338.139 163.774C338.363 163.924 338.639 163.998 338.965 163.998C339.572 163.998 339.875 163.812 339.875 163.438C339.875 163.252 339.805 163.112 339.665 163.018C339.535 162.916 339.311 162.822 338.993 162.738L337.677 162.402C337.08 162.244 336.632 161.978 336.333 161.604C336.044 161.222 335.899 160.764 335.899 160.232C335.899 159.626 336.151 159.131 336.655 158.748C337.169 158.356 337.855 158.16 338.713 158.16C339.497 158.16 340.151 158.361 340.673 158.762C341.196 159.154 341.485 159.691 341.541 160.372H339.609C339.525 159.896 339.217 159.658 338.685 159.658C338.433 159.658 338.233 159.705 338.083 159.798C337.934 159.892 337.859 160.022 337.859 160.19C337.859 160.498 338.125 160.713 338.657 160.834L339.889 161.17C340.571 161.338 341.065 161.604 341.373 161.968C341.681 162.323 341.835 162.78 341.835 163.34C341.835 163.984 341.56 164.502 341.009 164.894C340.468 165.277 339.768 165.468 338.909 165.468ZM349.249 165.468C348.325 165.468 347.545 165.109 346.911 164.39C346.276 163.672 345.959 162.813 345.959 161.814C345.959 160.816 346.276 159.957 346.911 159.238C347.545 158.52 348.325 158.16 349.249 158.16C349.697 158.16 350.098 158.254 350.453 158.44C350.807 158.627 351.078 158.846 351.265 159.098V158.314H353.183V165.314H351.265V164.53C351.078 164.782 350.807 165.002 350.453 165.188C350.098 165.375 349.697 165.468 349.249 165.468ZM348.367 163.186C348.693 163.541 349.123 163.718 349.655 163.718C350.187 163.718 350.611 163.541 350.929 163.186C351.255 162.832 351.419 162.374 351.419 161.814C351.419 161.254 351.255 160.797 350.929 160.442C350.611 160.088 350.187 159.91 349.655 159.91C349.123 159.91 348.693 160.088 348.367 160.442C348.049 160.797 347.891 161.254 347.891 161.814C347.891 162.374 348.049 162.832 348.367 163.186ZM357.889 165.468C356.965 165.468 356.186 165.109 355.551 164.39C354.917 163.672 354.599 162.813 354.599 161.814C354.599 160.816 354.917 159.957 355.551 159.238C356.186 158.52 356.965 158.16 357.889 158.16C358.337 158.16 358.739 158.254 359.093 158.44C359.448 158.627 359.719 158.846 359.905 159.098V154.814H361.823V165.314H359.905V164.53C359.719 164.782 359.448 165.002 359.093 165.188C358.739 165.375 358.337 165.468 357.889 165.468ZM357.007 163.186C357.334 163.541 357.763 163.718 358.295 163.718C358.827 163.718 359.252 163.541 359.569 163.186C359.896 162.832 360.059 162.374 360.059 161.814C360.059 161.254 359.896 160.797 359.569 160.442C359.252 160.088 358.827 159.91 358.295 159.91C357.763 159.91 357.334 160.088 357.007 160.442C356.69 160.797 356.531 161.254 356.531 161.814C356.531 162.374 356.69 162.832 357.007 163.186ZM366.53 165.468C365.606 165.468 364.826 165.109 364.192 164.39C363.557 163.672 363.24 162.813 363.24 161.814C363.24 160.816 363.557 159.957 364.192 159.238C364.826 158.52 365.606 158.16 366.53 158.16C366.978 158.16 367.379 158.254 367.734 158.44C368.088 158.627 368.359 158.846 368.546 159.098V154.814H370.464V165.314H368.546V164.53C368.359 164.782 368.088 165.002 367.734 165.188C367.379 165.375 366.978 165.468 366.53 165.468ZM365.648 163.186C365.974 163.541 366.404 163.718 366.936 163.718C367.468 163.718 367.892 163.541 368.21 163.186C368.536 162.832 368.7 162.374 368.7 161.814C368.7 161.254 368.536 160.797 368.21 160.442C367.892 160.088 367.468 159.91 366.936 159.91C366.404 159.91 365.974 160.088 365.648 160.442C365.33 160.797 365.172 161.254 365.172 161.814C365.172 162.374 365.33 162.832 365.648 163.186ZM375.548 165.468C374.475 165.468 373.593 165.123 372.902 164.432C372.221 163.742 371.88 162.864 371.88 161.8C371.88 160.755 372.226 159.887 372.916 159.196C373.616 158.506 374.498 158.16 375.562 158.16C376.636 158.16 377.527 158.529 378.236 159.266C378.946 159.994 379.272 160.993 379.216 162.262H373.756C373.794 162.701 373.976 163.07 374.302 163.368C374.629 163.658 375.077 163.802 375.646 163.802C375.992 163.802 376.295 163.737 376.556 163.606C376.827 163.466 377.018 163.275 377.13 163.032H379.132C378.927 163.751 378.498 164.339 377.844 164.796C377.191 165.244 376.426 165.468 375.548 165.468ZM375.506 159.714C375.068 159.714 374.699 159.831 374.4 160.064C374.111 160.288 373.92 160.601 373.826 161.002H377.116C377.014 160.564 376.808 160.242 376.5 160.036C376.202 159.822 375.87 159.714 375.506 159.714ZM383.456 165.468C382.532 165.468 381.752 165.109 381.118 164.39C380.483 163.672 380.166 162.813 380.166 161.814C380.166 160.816 380.483 159.957 381.118 159.238C381.752 158.52 382.532 158.16 383.456 158.16C383.904 158.16 384.305 158.254 384.66 158.44C385.014 158.627 385.285 158.846 385.472 159.098V154.814H387.39V165.314H385.472V164.53C385.285 164.782 385.014 165.002 384.66 165.188C384.305 165.375 383.904 165.468 383.456 165.468ZM382.574 163.186C382.9 163.541 383.33 163.718 383.862 163.718C384.394 163.718 384.818 163.541 385.136 163.186C385.462 162.832 385.626 162.374 385.626 161.814C385.626 161.254 385.462 160.797 385.136 160.442C384.818 160.088 384.394 159.91 383.862 159.91C383.33 159.91 382.9 160.088 382.574 160.442C382.256 160.797 382.098 161.254 382.098 161.814C382.098 162.374 382.256 162.832 382.574 163.186Z" fill="#5C5C5C"/>
<path d="M299.876 152.017L304.268 146.017C302.94 145.985 301.748 145.465 300.692 144.457C299.652 143.449 299.132 142.153 299.132 140.569C299.132 138.873 299.676 137.473 300.764 136.369C301.868 135.249 303.308 134.689 305.084 134.689C306.86 134.689 308.292 135.249 309.38 136.369C310.484 137.473 311.036 138.873 311.036 140.569C311.036 141.353 310.892 142.049 310.604 142.657C310.316 143.249 309.796 144.065 309.044 145.105L303.956 152.017H299.876ZM303.188 142.417C303.7 142.945 304.332 143.209 305.084 143.209C305.836 143.209 306.46 142.945 306.956 142.417C307.468 141.889 307.724 141.257 307.724 140.521C307.724 139.769 307.476 139.137 306.98 138.625C306.484 138.113 305.852 137.857 305.084 137.857C304.316 137.857 303.684 138.113 303.188 138.625C302.692 139.121 302.444 139.753 302.444 140.521C302.444 141.257 302.692 141.889 303.188 142.417ZM319.444 152.281C317.572 152.281 316.044 151.649 314.86 150.385C313.676 149.121 313.084 147.505 313.084 145.537V141.409C313.084 139.457 313.676 137.849 314.86 136.585C316.044 135.321 317.572 134.689 319.444 134.689C321.3 134.689 322.82 135.321 324.004 136.585C325.188 137.849 325.78 139.457 325.78 141.409V145.537C325.78 147.505 325.188 149.121 324.004 150.385C322.82 151.649 321.3 152.281 319.444 152.281ZM317.212 148.105C317.772 148.729 318.516 149.041 319.444 149.041C320.372 149.041 321.108 148.729 321.652 148.105C322.212 147.481 322.492 146.625 322.492 145.537V141.409C322.492 140.321 322.212 139.473 321.652 138.865C321.108 138.241 320.372 137.929 319.444 137.929C318.516 137.929 317.772 138.241 317.212 138.865C316.652 139.473 316.372 140.321 316.372 141.409V145.537C316.372 146.625 316.652 147.481 317.212 148.105ZM334.584 152.281C332.712 152.281 331.184 151.649 330 150.385C328.816 149.121 328.224 147.505 328.224 145.537V141.409C328.224 139.457 328.816 137.849 330 136.585C331.184 135.321 332.712 134.689 334.584 134.689C336.44 134.689 337.96 135.321 339.144 136.585C340.328 137.849 340.92 139.457 340.92 141.409V145.537C340.92 147.505 340.328 149.121 339.144 150.385C337.96 151.649 336.44 152.281 334.584 152.281ZM332.352 148.105C332.912 148.729 333.656 149.041 334.584 149.041C335.512 149.041 336.248 148.729 336.792 148.105C337.352 147.481 337.632 146.625 337.632 145.537V141.409C337.632 140.321 337.352 139.473 336.792 138.865C336.248 138.241 335.512 137.929 334.584 137.929C333.656 137.929 332.912 138.241 332.352 138.865C331.792 139.473 331.512 140.321 331.512 141.409V145.537C331.512 146.625 331.792 147.481 332.352 148.105Z" fill="#5C5C5C"/>
<path d="M260.419 90.0002C226.608 92.6568 192.767 106 87.2138 36.4644C70.3824 25.3762 40.9777 21.6451 28.9354 27.0002C15.0752 33.1636 10.496 36.6741 0 47.4994V118H789V110.578C785.387 110.987 766.029 108.559 730.722 107.578C686.587 106.352 676.717 107.578 644.323 107.578C611.929 107.578 577.851 108.726 546.105 107.5C514.36 106.274 488.029 106.792 445.443 102.5C411.374 99.0671 306.102 90.8176 260.419 90.0002Z" fill="#665FEF" fill-opacity="0.2"/>
<line x1="133.043" y1="3.64354e-08" x2="133.043" y2="150" stroke="#EFEFEF" stroke-width="2"/>
<line x1="661.217" y1="3.64354e-08" x2="661.217" y2="150" stroke="#EFEFEF" stroke-width="2"/>
<line x1="529.174" y1="3.64354e-08" x2="529.174" y2="150" stroke="#EFEFEF" stroke-width="2"/>
<rect x="264.087" width="132.043" height="174" rx="8" fill="#F2F2F2"/>
<mask id="mask0_178_8858" style="mask-type:alpha" maskUnits="userSpaceOnUse" x="264" y="0" width="133" height="174">
<rect x="264.087" width="132.043" height="174" fill="#DFDFDF"/>
</mask>
<g mask="url(#mask0_178_8858)">
<path d="M278.049 166.168C277.017 166.168 276.197 165.88 275.589 165.304C274.981 164.72 274.677 163.88 274.677 162.784V160.816C274.677 159.72 274.981 158.884 275.589 158.308C276.197 157.724 277.017 157.432 278.049 157.432C279.081 157.432 279.901 157.724 280.509 158.308C281.125 158.884 281.433 159.72 281.433 160.816V162.784C281.433 163.88 281.125 164.72 280.509 165.304C279.901 165.88 279.081 166.168 278.049 166.168ZM278.049 165.004C278.713 165.004 279.225 164.812 279.585 164.428C279.945 164.036 280.125 163.504 280.125 162.832V160.768C280.125 160.096 279.945 159.568 279.585 159.184C279.225 158.792 278.713 158.596 278.049 158.596C277.401 158.596 276.893 158.792 276.525 159.184C276.157 159.568 275.973 160.096 275.973 160.768V162.832C275.973 163.504 276.157 164.036 276.525 164.428C276.893 164.812 277.401 165.004 278.049 165.004ZM278.565 168.052C278.221 168.052 277.941 167.944 277.725 167.728C277.517 167.52 277.413 167.236 277.413 166.876V166H278.685V166.66C278.685 166.9 278.797 167.02 279.021 167.02H279.765V168.052H278.565ZM285.271 166.108C284.823 166.108 284.423 166.008 284.071 165.808C283.719 165.608 283.443 165.324 283.243 164.956C283.043 164.588 282.943 164.148 282.943 163.636V160.084H284.179V163.552C284.179 164.064 284.307 164.444 284.563 164.692C284.819 164.932 285.175 165.052 285.631 165.052C286.135 165.052 286.539 164.884 286.843 164.548C287.155 164.204 287.311 163.712 287.311 163.072V160.084H288.547V166H287.335V165.112H287.143C287.031 165.352 286.831 165.58 286.543 165.796C286.255 166.004 285.831 166.108 285.271 166.108ZM292.21 166.168C291.786 166.168 291.406 166.096 291.07 165.952C290.742 165.808 290.478 165.596 290.278 165.316C290.086 165.036 289.99 164.696 289.99 164.296C289.99 163.888 290.086 163.552 290.278 163.288C290.478 163.016 290.746 162.812 291.082 162.676C291.426 162.54 291.814 162.472 292.246 162.472H294.046V162.088C294.046 161.744 293.942 161.468 293.734 161.26C293.526 161.052 293.206 160.948 292.774 160.948C292.35 160.948 292.026 161.048 291.802 161.248C291.578 161.448 291.43 161.708 291.358 162.028L290.206 161.656C290.302 161.336 290.454 161.048 290.662 160.792C290.878 160.528 291.162 160.316 291.514 160.156C291.866 159.996 292.29 159.916 292.786 159.916C293.554 159.916 294.158 160.112 294.598 160.504C295.038 160.896 295.258 161.452 295.258 162.172V164.608C295.258 164.848 295.37 164.968 295.594 164.968H296.098V166H295.174C294.894 166 294.666 165.928 294.49 165.784C294.314 165.64 294.226 165.444 294.226 165.196V165.16H294.046C293.982 165.28 293.886 165.42 293.758 165.58C293.63 165.74 293.442 165.88 293.194 166C292.946 166.112 292.618 166.168 292.21 166.168ZM292.39 165.148C292.886 165.148 293.286 165.008 293.59 164.728C293.894 164.44 294.046 164.048 294.046 163.552V163.432H292.318C291.99 163.432 291.726 163.504 291.526 163.648C291.326 163.784 291.226 163.988 291.226 164.26C291.226 164.532 291.33 164.748 291.538 164.908C291.746 165.068 292.03 165.148 292.39 165.148ZM297.3 166V157.6H298.536V166H297.3ZM300.37 166V160.084H301.606V166H300.37ZM300.994 159.28C300.754 159.28 300.55 159.204 300.382 159.052C300.222 158.892 300.142 158.688 300.142 158.44C300.142 158.192 300.222 157.992 300.382 157.84C300.55 157.68 300.754 157.6 300.994 157.6C301.242 157.6 301.446 157.68 301.606 157.84C301.766 157.992 301.846 158.192 301.846 158.44C301.846 158.688 301.766 158.892 301.606 159.052C301.446 159.204 301.242 159.28 300.994 159.28ZM304.508 166V161.128H302.852V160.084H304.508V158.788C304.508 158.428 304.616 158.14 304.832 157.924C305.048 157.708 305.336 157.6 305.696 157.6H307.22V158.644H306.092C305.86 158.644 305.744 158.764 305.744 159.004V160.084H307.448V161.128H305.744V166H304.508ZM308.397 166V160.084H309.633V166H308.397ZM309.021 159.28C308.781 159.28 308.577 159.204 308.409 159.052C308.249 158.892 308.169 158.688 308.169 158.44C308.169 158.192 308.249 157.992 308.409 157.84C308.577 157.68 308.781 157.6 309.021 157.6C309.269 157.6 309.473 157.68 309.633 157.84C309.793 157.992 309.873 158.192 309.873 158.44C309.873 158.688 309.793 158.892 309.633 159.052C309.473 159.204 309.269 159.28 309.021 159.28ZM314.18 166.168C313.58 166.168 313.056 166.044 312.608 165.796C312.16 165.54 311.808 165.184 311.552 164.728C311.304 164.264 311.18 163.728 311.18 163.12V162.976C311.18 162.36 311.304 161.824 311.552 161.368C311.8 160.904 312.144 160.548 312.584 160.3C313.032 160.044 313.548 159.916 314.132 159.916C314.7 159.916 315.196 160.044 315.62 160.3C316.052 160.548 316.388 160.896 316.628 161.344C316.868 161.792 316.988 162.316 316.988 162.916V163.384H312.44C312.456 163.904 312.628 164.32 312.956 164.632C313.292 164.936 313.708 165.088 314.204 165.088C314.668 165.088 315.016 164.984 315.248 164.776C315.488 164.568 315.672 164.328 315.8 164.056L316.82 164.584C316.708 164.808 316.544 165.044 316.328 165.292C316.12 165.54 315.844 165.748 315.5 165.916C315.156 166.084 314.716 166.168 314.18 166.168ZM312.452 162.436H315.728C315.696 161.988 315.536 161.64 315.248 161.392C314.96 161.136 314.584 161.008 314.12 161.008C313.656 161.008 313.276 161.136 312.98 161.392C312.692 161.64 312.516 161.988 312.452 162.436ZM320.924 166.168C320.436 166.168 319.984 166.048 319.568 165.808C319.152 165.568 318.816 165.224 318.56 164.776C318.312 164.32 318.188 163.772 318.188 163.132V162.952C318.188 162.32 318.312 161.776 318.56 161.32C318.808 160.864 319.14 160.516 319.556 160.276C319.972 160.036 320.428 159.916 320.924 159.916C321.308 159.916 321.628 159.964 321.884 160.06C322.148 160.156 322.364 160.28 322.532 160.432C322.7 160.576 322.828 160.728 322.916 160.888H323.108V157.6H324.344V166H323.132V165.16H322.94C322.788 165.416 322.556 165.648 322.244 165.856C321.94 166.064 321.5 166.168 320.924 166.168ZM321.272 165.088C321.808 165.088 322.248 164.916 322.592 164.572C322.944 164.228 323.12 163.736 323.12 163.096V162.988C323.12 162.356 322.948 161.868 322.604 161.524C322.26 161.18 321.816 161.008 321.272 161.008C320.744 161.008 320.304 161.18 319.952 161.524C319.608 161.868 319.436 162.356 319.436 162.988V163.096C319.436 163.736 319.608 164.228 319.952 164.572C320.304 164.916 320.744 165.088 321.272 165.088ZM332.306 166.168C331.282 166.168 330.47 165.88 329.87 165.304C329.27 164.72 328.97 163.88 328.97 162.784V160.816C328.97 159.72 329.27 158.884 329.87 158.308C330.47 157.724 331.282 157.432 332.306 157.432C333.314 157.432 334.09 157.712 334.634 158.272C335.186 158.832 335.462 159.596 335.462 160.564V160.636H334.178V160.528C334.178 159.96 334.022 159.496 333.71 159.136C333.406 158.776 332.938 158.596 332.306 158.596C331.666 158.596 331.166 158.792 330.806 159.184C330.446 159.568 330.266 160.104 330.266 160.792V162.808C330.266 163.488 330.446 164.024 330.806 164.416C331.166 164.808 331.666 165.004 332.306 165.004C332.938 165.004 333.406 164.824 333.71 164.464C334.022 164.096 334.178 163.632 334.178 163.072V162.868H335.462V163.036C335.462 164.004 335.186 164.768 334.634 165.328C334.09 165.888 333.314 166.168 332.306 166.168ZM338.769 166.168C338.345 166.168 337.965 166.096 337.629 165.952C337.301 165.808 337.037 165.596 336.837 165.316C336.645 165.036 336.549 164.696 336.549 164.296C336.549 163.888 336.645 163.552 336.837 163.288C337.037 163.016 337.305 162.812 337.641 162.676C337.985 162.54 338.373 162.472 338.805 162.472H340.605V162.088C340.605 161.744 340.501 161.468 340.293 161.26C340.085 161.052 339.765 160.948 339.333 160.948C338.909 160.948 338.585 161.048 338.361 161.248C338.137 161.448 337.989 161.708 337.917 162.028L336.765 161.656C336.861 161.336 337.013 161.048 337.221 160.792C337.437 160.528 337.721 160.316 338.073 160.156C338.425 159.996 338.849 159.916 339.345 159.916C340.113 159.916 340.717 160.112 341.157 160.504C341.597 160.896 341.817 161.452 341.817 162.172V164.608C341.817 164.848 341.929 164.968 342.153 164.968H342.657V166H341.733C341.453 166 341.225 165.928 341.049 165.784C340.873 165.64 340.785 165.444 340.785 165.196V165.16H340.605C340.541 165.28 340.445 165.42 340.317 165.58C340.189 165.74 340.001 165.88 339.753 166C339.505 166.112 339.177 166.168 338.769 166.168ZM338.949 165.148C339.445 165.148 339.845 165.008 340.149 164.728C340.453 164.44 340.605 164.048 340.605 163.552V163.432H338.877C338.549 163.432 338.285 163.504 338.085 163.648C337.885 163.784 337.785 163.988 337.785 164.26C337.785 164.532 337.889 164.748 338.097 164.908C338.305 165.068 338.589 165.148 338.949 165.148ZM343.858 166V160.084H345.07V160.972H345.262C345.374 160.732 345.574 160.508 345.862 160.3C346.15 160.092 346.578 159.988 347.146 159.988C347.594 159.988 347.99 160.088 348.334 160.288C348.686 160.488 348.962 160.772 349.162 161.14C349.362 161.5 349.462 161.936 349.462 162.448V166H348.226V162.544C348.226 162.032 348.098 161.656 347.842 161.416C347.586 161.168 347.234 161.044 346.786 161.044C346.274 161.044 345.862 161.212 345.55 161.548C345.246 161.884 345.094 162.372 345.094 163.012V166H343.858ZM353.689 166.168C353.201 166.168 352.749 166.048 352.333 165.808C351.917 165.568 351.581 165.224 351.325 164.776C351.077 164.32 350.953 163.772 350.953 163.132V162.952C350.953 162.32 351.077 161.776 351.325 161.32C351.573 160.864 351.905 160.516 352.321 160.276C352.737 160.036 353.193 159.916 353.689 159.916C354.073 159.916 354.393 159.964 354.649 160.06C354.913 160.156 355.129 160.28 355.297 160.432C355.465 160.576 355.593 160.728 355.681 160.888H355.873V157.6H357.109V166H355.897V165.16H355.705C355.553 165.416 355.321 165.648 355.009 165.856C354.705 166.064 354.265 166.168 353.689 166.168ZM354.037 165.088C354.573 165.088 355.013 164.916 355.357 164.572C355.709 164.228 355.885 163.736 355.885 163.096V162.988C355.885 162.356 355.713 161.868 355.369 161.524C355.025 161.18 354.581 161.008 354.037 161.008C353.509 161.008 353.069 161.18 352.717 161.524C352.373 161.868 352.201 162.356 352.201 162.988V163.096C352.201 163.736 352.373 164.228 352.717 164.572C353.069 164.916 353.509 165.088 354.037 165.088ZM358.929 166V160.084H360.165V166H358.929ZM359.553 159.28C359.313 159.28 359.109 159.204 358.941 159.052C358.781 158.892 358.701 158.688 358.701 158.44C358.701 158.192 358.781 157.992 358.941 157.84C359.109 157.68 359.313 157.6 359.553 157.6C359.801 157.6 360.005 157.68 360.165 157.84C360.325 157.992 360.405 158.192 360.405 158.44C360.405 158.688 360.325 158.892 360.165 159.052C360.005 159.204 359.801 159.28 359.553 159.28ZM363.835 166.168C363.411 166.168 363.031 166.096 362.695 165.952C362.367 165.808 362.103 165.596 361.903 165.316C361.711 165.036 361.615 164.696 361.615 164.296C361.615 163.888 361.711 163.552 361.903 163.288C362.103 163.016 362.371 162.812 362.707 162.676C363.051 162.54 363.439 162.472 363.871 162.472H365.671V162.088C365.671 161.744 365.567 161.468 365.359 161.26C365.151 161.052 364.831 160.948 364.399 160.948C363.975 160.948 363.651 161.048 363.427 161.248C363.203 161.448 363.055 161.708 362.983 162.028L361.831 161.656C361.927 161.336 362.079 161.048 362.287 160.792C362.503 160.528 362.787 160.316 363.139 160.156C363.491 159.996 363.915 159.916 364.411 159.916C365.179 159.916 365.783 160.112 366.223 160.504C366.663 160.896 366.883 161.452 366.883 162.172V164.608C366.883 164.848 366.995 164.968 367.219 164.968H367.723V166H366.799C366.519 166 366.291 165.928 366.115 165.784C365.939 165.64 365.851 165.444 365.851 165.196V165.16H365.671C365.607 165.28 365.511 165.42 365.383 165.58C365.255 165.74 365.067 165.88 364.819 166C364.571 166.112 364.243 166.168 363.835 166.168ZM364.015 165.148C364.511 165.148 364.911 165.008 365.215 164.728C365.519 164.44 365.671 164.048 365.671 163.552V163.432H363.943C363.615 163.432 363.351 163.504 363.151 163.648C362.951 163.784 362.851 163.988 362.851 164.26C362.851 164.532 362.955 164.748 363.163 164.908C363.371 165.068 363.655 165.148 364.015 165.148ZM370.735 166C370.375 166 370.087 165.892 369.871 165.676C369.663 165.46 369.559 165.172 369.559 164.812V161.128H367.927V160.084H369.559V158.128H370.795V160.084H372.559V161.128H370.795V164.596C370.795 164.836 370.907 164.956 371.131 164.956H372.367V166H370.735ZM376.512 166.168C375.912 166.168 375.388 166.044 374.94 165.796C374.492 165.54 374.14 165.184 373.884 164.728C373.636 164.264 373.512 163.728 373.512 163.12V162.976C373.512 162.36 373.636 161.824 373.884 161.368C374.132 160.904 374.476 160.548 374.916 160.3C375.364 160.044 375.88 159.916 376.464 159.916C377.032 159.916 377.528 160.044 377.952 160.3C378.384 160.548 378.72 160.896 378.96 161.344C379.2 161.792 379.32 162.316 379.32 162.916V163.384H374.772C374.788 163.904 374.96 164.32 375.288 164.632C375.624 164.936 376.04 165.088 376.536 165.088C377 165.088 377.348 164.984 377.58 164.776C377.82 164.568 378.004 164.328 378.132 164.056L379.152 164.584C379.04 164.808 378.876 165.044 378.66 165.292C378.452 165.54 378.176 165.748 377.832 165.916C377.488 166.084 377.048 166.168 376.512 166.168ZM374.784 162.436H378.06C378.028 161.988 377.868 161.64 377.58 161.392C377.292 161.136 376.916 161.008 376.452 161.008C375.988 161.008 375.608 161.136 375.312 161.392C375.024 161.64 374.848 161.988 374.784 162.436ZM383.232 166.168C382.48 166.168 381.856 166 381.36 165.664C380.864 165.328 380.56 164.82 380.448 164.14L381.6 163.864C381.664 164.192 381.772 164.452 381.924 164.644C382.076 164.836 382.264 164.972 382.488 165.052C382.72 165.132 382.968 165.172 383.232 165.172C383.624 165.172 383.924 165.096 384.132 164.944C384.348 164.792 384.456 164.596 384.456 164.356C384.456 164.116 384.356 163.94 384.156 163.828C383.956 163.716 383.66 163.624 383.268 163.552L382.86 163.48C382.46 163.408 382.096 163.304 381.768 163.168C381.44 163.032 381.18 162.844 380.988 162.604C380.796 162.364 380.7 162.056 380.7 161.68C380.7 161.12 380.908 160.688 381.324 160.384C381.74 160.072 382.292 159.916 382.98 159.916C383.644 159.916 384.188 160.068 384.612 160.372C385.044 160.668 385.324 161.072 385.452 161.584L384.3 161.908C384.228 161.548 384.076 161.296 383.844 161.152C383.612 161 383.324 160.924 382.98 160.924C382.644 160.924 382.38 160.988 382.188 161.116C381.996 161.236 381.9 161.408 381.9 161.632C381.9 161.872 381.992 162.048 382.176 162.16C382.368 162.272 382.624 162.356 382.944 162.412L383.364 162.484C383.788 162.556 384.176 162.656 384.528 162.784C384.88 162.912 385.156 163.096 385.356 163.336C385.564 163.576 385.668 163.896 385.668 164.296C385.668 164.888 385.448 165.348 385.008 165.676C384.568 166.004 383.976 166.168 383.232 166.168Z" fill="#5C5C5C"/>
<path d="M316.993 145.294C315.859 145.294 314.865 145.126 314.011 144.79C313.171 144.454 312.513 143.971 312.037 143.341C311.575 142.697 311.344 141.948 311.344 141.094V140.863C311.344 140.163 311.477 139.589 311.743 139.141C312.023 138.679 312.359 138.322 312.751 138.07C313.157 137.804 313.535 137.629 313.885 137.545V137.209C313.535 137.111 313.178 136.936 312.814 136.684C312.45 136.418 312.149 136.075 311.911 135.655C311.687 135.221 311.575 134.703 311.575 134.101V133.87C311.575 133.086 311.799 132.407 312.247 131.833C312.709 131.259 313.346 130.811 314.158 130.489C314.97 130.167 315.915 130.006 316.993 130.006C318.057 130.006 318.995 130.167 319.807 130.489C320.619 130.811 321.249 131.259 321.697 131.833C322.159 132.407 322.39 133.086 322.39 133.87V134.101C322.39 134.703 322.271 135.221 322.033 135.655C321.809 136.075 321.522 136.418 321.172 136.684C320.822 136.936 320.465 137.111 320.101 137.209V137.545C320.465 137.629 320.843 137.804 321.235 138.07C321.627 138.322 321.956 138.679 322.222 139.141C322.488 139.589 322.621 140.163 322.621 140.863V141.094C322.621 141.948 322.383 142.697 321.907 143.341C321.445 143.971 320.787 144.454 319.933 144.79C319.093 145.126 318.113 145.294 316.993 145.294ZM316.993 143.32C318.057 143.32 318.89 143.117 319.492 142.711C320.108 142.291 320.416 141.71 320.416 140.968V140.8C320.416 140.044 320.115 139.463 319.513 139.057C318.925 138.637 318.085 138.427 316.993 138.427C315.901 138.427 315.054 138.637 314.452 139.057C313.85 139.463 313.549 140.044 313.549 140.8V140.968C313.549 141.71 313.85 142.291 314.452 142.711C315.068 143.117 315.915 143.32 316.993 143.32ZM316.993 136.453C317.987 136.453 318.764 136.264 319.324 135.886C319.898 135.508 320.185 134.976 320.185 134.29V134.122C320.185 133.436 319.898 132.911 319.324 132.547C318.75 132.169 317.973 131.98 316.993 131.98C315.999 131.98 315.215 132.169 314.641 132.547C314.067 132.911 313.78 133.436 313.78 134.122V134.29C313.78 134.976 314.06 135.508 314.62 135.886C315.194 136.264 315.985 136.453 316.993 136.453ZM329.747 145.294C328.641 145.294 327.682 145.091 326.87 144.685C326.058 144.279 325.428 143.705 324.98 142.963C324.546 142.221 324.329 141.36 324.329 140.38V140.149H326.576V140.359C326.576 141.255 326.849 141.976 327.395 142.522C327.955 143.054 328.732 143.32 329.726 143.32C330.748 143.32 331.539 143.04 332.099 142.48C332.659 141.92 332.939 141.164 332.939 140.212V140.023C332.939 139.113 332.659 138.385 332.099 137.839C331.553 137.293 330.853 137.02 329.999 137.02C329.523 137.02 329.124 137.097 328.802 137.251C328.494 137.391 328.242 137.566 328.046 137.776C327.864 137.986 327.71 138.189 327.584 138.385H324.791V130.3H334.64V132.295H326.996V136.621H327.332C327.472 136.383 327.668 136.159 327.92 135.949C328.186 135.725 328.529 135.543 328.949 135.403C329.369 135.263 329.873 135.193 330.461 135.193C331.329 135.193 332.113 135.382 332.813 135.76C333.527 136.124 334.094 136.67 334.514 137.398C334.934 138.112 335.144 138.98 335.144 140.002V140.233C335.144 141.255 334.927 142.144 334.493 142.9C334.059 143.656 333.436 144.244 332.624 144.664C331.826 145.084 330.867 145.294 329.747 145.294ZM342.738 145.294C341.03 145.294 339.665 144.811 338.643 143.845C337.635 142.865 337.131 141.395 337.131 139.435V135.865C337.131 133.947 337.635 132.491 338.643 131.497C339.665 130.503 341.03 130.006 342.738 130.006C344.46 130.006 345.825 130.503 346.833 131.497C347.855 132.491 348.366 133.947 348.366 135.865V139.435C348.366 141.395 347.855 142.865 346.833 143.845C345.825 144.811 344.46 145.294 342.738 145.294ZM342.738 143.32C343.9 143.32 344.761 142.991 345.321 142.333C345.881 141.661 346.161 140.723 346.161 139.519V135.739C346.161 134.535 345.86 133.611 345.258 132.967C344.656 132.309 343.816 131.98 342.738 131.98C341.646 131.98 340.806 132.316 340.218 132.988C339.63 133.646 339.336 134.563 339.336 135.739V139.519C339.336 140.751 339.616 141.696 340.176 142.354C340.75 142.998 341.604 143.32 342.738 143.32Z" fill="#5C5C5C"/>
<path d="M111.696 14.8538C74.9009 -8.19935 26.2051 26.5029 6.45654 46.7357V117.244H800.816V106.821C797.178 107.23 781.015 107.802 745.468 106.821C701.034 105.595 672.19 90.8799 641.009 79.2308C609.827 67.5816 564.613 57.1586 532.651 55.9324C500.69 54.7062 483.54 46.7357 440.665 42.4439C430.624 41.4387 414.497 91.9295 396.13 97.9998C342.335 89.9998 297.379 90.621 264.087 89.9998C262.614 89.9723 261.187 35.7241 259.81 35.6996C225.769 38.3565 148.49 37.9069 111.696 14.8538Z" fill="#793EF5"/>
</g>
</svg>
