<svg width="190" height="32" viewBox="0 0 190 32" fill="none" xmlns="http://www.w3.org/2000/svg">
<path d="M0 21C0 19.3431 1.34315 18 3 18C4.65685 18 6 19.3431 6 21V32H0V21Z" fill="#C4C4C4"/>
<path d="M9.6842 17.3999C9.6842 15.743 11.0273 14.3999 12.6842 14.3999C14.3411 14.3999 15.6842 15.743 15.6842 17.3999V31.9999H9.6842V17.3999Z" fill="#C4C4C4"/>
<path d="M19.3684 15C19.3684 13.3431 20.7116 12 22.3684 12C24.0253 12 25.3684 13.3431 25.3684 15V32H19.3684V15Z" fill="#C4C4C4"/>
<path d="M29.0526 17.3999C29.0526 15.743 30.3958 14.3999 32.0526 14.3999C33.7095 14.3999 35.0526 15.743 35.0526 17.3999V31.9999H29.0526V17.3999Z" fill="#C4C4C4"/>
<path d="M38.7368 17.3999C38.7368 15.743 40.08 14.3999 41.7368 14.3999C43.3937 14.3999 44.7368 15.743 44.7368 17.3999V31.9999H38.7368V17.3999Z" fill="#C4C4C4"/>
<path d="M48.421 21C48.421 19.3431 49.7642 18 51.421 18C53.0779 18 54.421 19.3431 54.421 21V32H48.421V21Z" fill="#C4C4C4"/>
<path d="M58.1052 16.2002C58.1052 14.5433 59.4484 13.2002 61.1052 13.2002C62.7621 13.2002 64.1052 14.5433 64.1052 16.2002V32.0002H58.1052V16.2002Z" fill="#C4C4C4"/>
<path d="M67.7894 12.6001C67.7894 10.9432 69.1326 9.6001 70.7894 9.6001C72.4463 9.6001 73.7894 10.9432 73.7894 12.6001V32.0001H67.7894V12.6001Z" fill="#C4C4C4"/>
<path d="M77.4736 11C77.4736 9.34315 78.8168 8 80.4736 8C82.1305 8 83.4736 9.34315 83.4736 11V32H77.4736V11Z" fill="#C4C4C4"/>
<path d="M87.158 7.3999C87.158 5.74305 88.5011 4.3999 90.158 4.3999C91.8148 4.3999 93.158 5.74305 93.158 7.3999V31.9999H87.158V7.3999Z" fill="#793EF5"/>
<path d="M96.8422 11C96.8422 9.34315 98.1853 8 99.8422 8C101.499 8 102.842 9.34315 102.842 11V32H96.8422V11Z" fill="#C4C4C4"/>
<path d="M106.526 12.6001C106.526 10.9432 107.87 9.6001 109.526 9.6001C111.183 9.6001 112.526 10.9432 112.526 12.6001V32.0001H106.526V12.6001Z" fill="#C4C4C4"/>
<path d="M116.211 3C116.211 1.34315 117.554 0 119.211 0C120.867 0 122.211 1.34315 122.211 3V32H116.211V3Z" fill="#C4C4C4"/>
<path d="M125.895 7.3999C125.895 5.74305 127.238 4.3999 128.895 4.3999C130.552 4.3999 131.895 5.74305 131.895 7.3999V31.9999H125.895V7.3999Z" fill="#C4C4C4"/>
<path d="M135.579 12.6001C135.579 10.9432 136.922 9.6001 138.579 9.6001C140.236 9.6001 141.579 10.9432 141.579 12.6001V32.0001H135.579V12.6001Z" fill="#C4C4C4"/>
<path d="M145.263 17.3999C145.263 15.743 146.606 14.3999 148.263 14.3999C149.92 14.3999 151.263 15.743 151.263 17.3999V31.9999H145.263V17.3999Z" fill="#C4C4C4"/>
<path d="M154.947 15C154.947 13.3431 156.291 12 157.947 12C159.604 12 160.947 13.3431 160.947 15V32H154.947V15Z" fill="#C4C4C4"/>
<path d="M164.632 21C164.632 19.3431 165.975 18 167.632 18C169.288 18 170.632 19.3431 170.632 21V32H164.632V21Z" fill="#C4C4C4"/>
<path d="M174.316 24.2002C174.316 22.5433 175.659 21.2002 177.316 21.2002C178.973 21.2002 180.316 22.5433 180.316 24.2002V32.0002H174.316V24.2002Z" fill="#C4C4C4"/>
<path d="M184 28.2002C184 26.5433 185.343 25.2002 187 25.2002C188.657 25.2002 190 26.5433 190 28.2002V32.0002H184V28.2002Z" fill="#C4C4C4"/>
</svg>
