<svg width="24" height="24" viewBox="0 0 24 24" fill="none" xmlns="http://www.w3.org/2000/svg">
<path d="M15 12C15 10.34 13.66 9 12 9C10.34 9 9 10.34 9 12C9 13.66 10.34 15 12 15C12.41 15 12.81 14.92 13.17 14.76" stroke="#1E1E1E" stroke-width="1.5" stroke-miterlimit="10" stroke-linecap="round" stroke-linejoin="round"/>
<path d="M6.87988 20.5798L7.96988 21.2098C8.75988 21.6798 9.77988 21.3998 10.2499 20.6098L10.3599 20.4198C11.2599 18.8498 12.7399 18.8498 13.6499 20.4198L13.7599 20.6098C14.2299 21.3998 15.2499 21.6798 16.0399 21.2098L17.7699 20.2198C18.6799 19.6998 18.9899 18.5298 18.4699 17.6298C17.5599 16.0598 18.2999 14.7798 20.1099 14.7798C21.1499 14.7798 22.0099 13.9298 22.0099 12.8798V11.1198C22.0099 10.0798 21.1599 9.21982 20.1099 9.21982C19.0999 9.21982 18.4199 8.81982 18.1799 8.18982C17.9899 7.69982 18.0699 7.05982 18.4699 6.36982C18.9899 5.45982 18.6799 4.29982 17.7699 3.77982L16.9599 3.31982" stroke="#1E1E1E" stroke-width="1.5" stroke-miterlimit="10" stroke-linecap="round" stroke-linejoin="round"/>
<path d="M13.64 3.57994C12.74 5.14994 11.26 5.14994 10.35 3.57994L10.24 3.38994C9.78 2.59994 8.76 2.31994 7.97 2.78994L6.24 3.77994C5.33 4.29994 5.02 5.46994 5.54 6.37994C6.45 7.93994 5.71 9.21994 3.9 9.21994C2.86 9.21994 2 10.0699 2 11.1199V12.8799C2 13.9199 2.85 14.7799 3.9 14.7799C5.71 14.7799 6.45 16.0599 5.54 17.6299" stroke="#1E1E1E" stroke-width="1.5" stroke-miterlimit="10" stroke-linecap="round" stroke-linejoin="round"/>
</svg>
